#define jx_beachball_2_cursor_width 17
#define jx_beachball_2_cursor_height 17
static char jx_beachball_2_cursor_bits[] = {
   0x00, 0x00, 0x00, 0xc0, 0x07, 0x00, 0x30, 0x18, 0x00, 0x08, 0x20, 0x00,
   0x1c, 0x70, 0x00, 0x3c, 0x78, 0x00, 0x7e, 0xfc, 0x00, 0xfe, 0xfe, 0x00,
   0xfe, 0xff, 0x00, 0xfe, 0xfe, 0x00, 0x7e, 0xfc, 0x00, 0x3c, 0x78, 0x00,
   0x1c, 0x70, 0x00, 0x08, 0x20, 0x00, 0x30, 0x18, 0x00, 0xc0, 0x07, 0x00,
   0x00, 0x00, 0x00};
