#define jx_drag_all_vert_line_cursor_width 17
#define jx_drag_all_vert_line_cursor_height 17
static char jx_drag_all_vert_line_cursor_bits[] = {
   0x00, 0x00, 0x00, 0x20, 0x09, 0x00, 0x20, 0x09, 0x00, 0x20, 0x09, 0x00,
   0x20, 0x09, 0x00, 0x20, 0x09, 0x00, 0x28, 0x29, 0x00, 0x24, 0x49, 0x00,
   0xfe, 0xff, 0x00, 0x24, 0x49, 0x00, 0x28, 0x29, 0x00, 0x20, 0x09, 0x00,
   0x20, 0x09, 0x00, 0x20, 0x09, 0x00, 0x20, 0x09, 0x00, 0x20, 0x09, 0x00,
   0x00, 0x00, 0x00};
