#define jx_drag_horiz_line_cursor_width 17
#define jx_drag_horiz_line_cursor_height 17
static char jx_drag_horiz_line_cursor_bits[] = {
   0x00, 0x00, 0x00, 0x00, 0x01, 0x00, 0x80, 0x03, 0x00, 0x40, 0x05, 0x00,
   0x00, 0x01, 0x00, 0x00, 0x01, 0x00, 0x00, 0x01, 0x00, 0x00, 0x01, 0x00,
   0xfe, 0xff, 0x00, 0x00, 0x01, 0x00, 0x00, 0x01, 0x00, 0x00, 0x01, 0x00,
   0x00, 0x01, 0x00, 0x40, 0x05, 0x00, 0x80, 0x03, 0x00, 0x00, 0x01, 0x00,
   0x00, 0x00, 0x00};
