#define jx_drag_link_directory_cursor_width 24
#define jx_drag_link_directory_cursor_height 22
static char jx_drag_link_directory_cursor_bits[] = {
   0x00, 0x00, 0x00, 0xf8, 0x00, 0x3c, 0x04, 0x01, 0x38, 0x02, 0x3e, 0x1c,
   0xfe, 0x41, 0x16, 0x02, 0x40, 0x02, 0x02, 0x40, 0x02, 0x42, 0x40, 0x04,
   0xc2, 0x40, 0x00, 0xc2, 0x41, 0x00, 0xc2, 0x43, 0x00, 0xc2, 0x47, 0x00,
   0xde, 0x6f, 0x00, 0xc0, 0x1f, 0x00, 0xc0, 0x3f, 0x00, 0xc0, 0x07, 0x00,
   0xc0, 0x06, 0x00, 0x40, 0x0c, 0x00, 0x00, 0x0c, 0x00, 0x00, 0x18, 0x00,
   0x00, 0x18, 0x00, 0x00, 0x00, 0x00 };
