#define jx_drag_ask_file_and_directory_cursor_width 24
#define jx_drag_ask_file_and_directory_cursor_height 27
static char jx_drag_ask_file_and_directory_cursor_bits[] = {
   0x00, 0x00, 0x00, 0xf8, 0x00, 0x1c, 0x04, 0x01, 0x22, 0x02, 0x3e, 0x20,
   0xfe, 0x41, 0x10, 0x02, 0x40, 0x08, 0xfa, 0x47, 0x08, 0x0a, 0x4c, 0x00,
   0x0a, 0x54, 0x08, 0x0a, 0x7c, 0x00, 0x0a, 0x60, 0x00, 0x0a, 0x60, 0x00,
   0x0e, 0x61, 0x00, 0x08, 0x23, 0x00, 0x08, 0x27, 0x00, 0x08, 0x2f, 0x00,
   0x08, 0x1f, 0x00, 0x08, 0x3f, 0x00, 0x78, 0x7f, 0x00, 0x00, 0xff, 0x00,
   0x00, 0x1f, 0x00, 0x00, 0x1b, 0x00, 0x00, 0x31, 0x00, 0x00, 0x30, 0x00,
   0x00, 0x60, 0x00, 0x00, 0x60, 0x00, 0x00, 0x00, 0x00 };
