#define jx_speed_scroll_cursor_width 16
#define jx_speed_scroll_cursor_height 20
static char jx_speed_scroll_cursor_bits[] = {
   0x00, 0x00, 0x08, 0x00, 0x18, 0x00, 0x38, 0x00, 0x78, 0x00, 0xf8, 0x00,
   0xf8, 0x01, 0xf8, 0x03, 0xf8, 0x07, 0xf8, 0x00, 0xd8, 0x04, 0x88, 0x09,
   0x80, 0x09, 0x10, 0x13, 0x20, 0x13, 0x20, 0x20, 0x40, 0x29, 0x40, 0x4a,
   0x80, 0x52, 0x80, 0x14};
