/* XPM */
static const char *glove_icon[] = {
/* width height num_colors chars_per_pixel */
"    33    32        3            1",
/* colors */
". c #000000",
"# c None",
"a c #f81040",
/* pixels */
"#######################aaa#######",
"#####################aa#aa#######",
"########################aa#######",
"#######################a#a#######",
"#######################a#a#aaa###",
"######################a#####aa###",
"######################a###aa#a###",
"#####################a###a###a###",
"#####################a##a########",
"####################a#aa#########",
"####################aa###########",
"###########..######aa############",
"##########.##.####aa#########a###",
"##########.##.###aa###########aa#",
"###########...##aa###########aaaa",
"###########.##..#a#####aaaaaa#aa#",
"##########.###a#..aaaaa######a###",
"##########.aaaaaa#...############",
"####aaaaaa.a###a#####..##..######",
"aaaa#####.a####a#######..##.#####",
"########a.####a#########.##.#####",
"#######a#.###a###########..######",
"######a##.###a###################",
"#####a##.###a####################",
"###aa##..###a####################",
"##a###.##.#a#####################",
"#a####.##.#a#####################",
"#######..#a######################",
"##########a######################",
"#########a#######################",
"#########a#######################",
"########a########################"
};
