/* XPM */
static const char *jx_print_portrait[] = {
/* columns rows colors chars-per-pixel */
"30 30 2 1 ",
"  c None",
". c black",
/* pixels */
"                              ",
"                              ",
"         ...............      ",
"    .    .             ..     ",
"   ...   .       ...   . .    ",
"  .....  .      .   .  .  .   ",
" ....... .      .   .  .....  ",
"   ...   .      .   .      .  ",
"   ...   .       . .       .  ",
"   ...   .    ...   ...    .  ",
"   ...   .   .         .   .  ",
"   ...   .   .         .   .  ",
"   ...   .   .         .   .  ",
"   ...   .   . .     . .   .  ",
"   ...   .   . .     . .   .  ",
"   ...   .   . .     . .   .  ",
"   ...   .   . .     . .   .  ",
"         .   . .     . .   .  ",
"   . .   .   ... ... ...   .  ",
"         .     . . . .     .  ",
"   . .   .     . . . .     .  ",
"         .     . . . .     .  ",
"   . .   .     . . . .     .  ",
"         .     . . . .     .  ",
"   . .   .     . . . .     .  ",
"         .     ... ...     .  ",
"         .                 .  ",
"         ...................  ",
"                              ",
"                              "
};
