/* XPM */
static char * gnb_clock[] = {
"15 15 6 1",
" 	c None",
".	c #000000000000",
"X	c #FFFFFFFF0000",
"o	c #FFFFFFFFFFFF",
"O	c #CCCCCCCCCCCC",
"+	c #808080808080",
"               ",
"   ..     ..   ",
"  .XX.....XX.  ",
" .XX.ooooo.XX. ",
" .X.ooo.ooo.X. ",
"  .oooo.oooO.  ",
"  .oooo.oooO.  ",
"  .oooo.oooO.  ",
"  .ooooo.ooO.  ",
"  .oooooo.oO.  ",
"   .ooooooO.   ",
"   +.OOOOO.+   ",
"   ++.....++   ",
"               ",
"               "};
