/* XPM */
static char * GNBMainIcon[] = {
"40 40 4 1",
" 	c None",
".	c #000000000000",
"X	c #808080808080",
"o	c #FFFF10104242",
"                                        ",
"           ..                           ",
" XXXXXXXX ...                           ",
" XXXXXXX ...                            ",
" XX     ...                             ",
" XX .. ...                              ",
" XX ..... X     ..................      ",
" XX  ... XX                             ",
" XX   .  XX     oooooo                  ",
" XX      XX      o   oo                 ",
" XXXXXXXXXX      o    o                 ",
" XXXXXXXXXX      o   oo  oooo  oooo     ",
"                 ooooo   o  o  o  o     ",
"                 o    o    o     o      ",
"           ..    o    o   o     o       ",
" XXXXXXXX ...    o   oo  o  o  o  o     ",
" XXXXXXX ...    oooooo   oooo  oooo     ",
" XX     ...                             ",
" XX .. ...                              ",
" XX ..... X     .............           ",
" XX  ... XX                             ",
" XX   .  XX                             ",
" XX      XX                             ",
" XXXXXXXXXX                             ",
" XXXXXXXXXX                             ",
"                                        ",
"                                        ",
"           ..                           ",
" XXXXXXXX ...    o  o  o                ",
" XXXXXXX ...                            ",
" XX     ...                             ",
" XX .. ...                              ",
" XX ..... X     ...................     ",
" XX  ... XX                             ",
" XX   .  XX                             ",
" XX      XX                             ",
" XXXXXXXXXX                             ",
" XXXXXXXXXX                             ",
"                                        ",
"                                        "};
