/* XPM */
static char * markdone[] = {
"14 14 2 1",
" 	c None",
".	c #000000000000",
"              ",
"            ..",
"           ...",
"          ... ",
"         ...  ",
"     .. ...   ",
"     .....    ",
"      ...     ",
"       .      ",
"              ",
"              ",
"              ",
"              ",
"              "};
