/* XPM */
static const char * md_main_window_icon[] = {
"24 28 3 1",
" 	c None",
".	c #000000",
"+	c #FFFFFF",
"                        ",
"                        ",
"                        ",
"            ......      ",
"            .++++.      ",
"   ......   .++++.      ",
"   .++++.   .++++.      ",
"   .++++.   .++++.      ",
"   .++++.   ......      ",
"   .++++.               ",
"   ......               ",
"             ........   ",
"             .++++++.   ",
"             .++++++.   ",
"             .++++++.   ",
"             .++++++.   ",
"    .......  .++++++.   ",
"    .+++++.  .++++++.   ",
"    .+++++.  ........   ",
"    .+++++.             ",
"    .+++++.   ......    ",
"    .+++++.   .++++.    ",
"    .......   .++++.    ",
"              .++++.    ",
"              .++++.    ",
"              ......    ",
"                        ",
"                        "};
