#define jx_beachball_cursor_mask_width 17
#define jx_beachball_cursor_mask_height 17
static char jx_beachball_cursor_mask_bits[] = {
   0xc0, 0x07, 0x00, 0xf0, 0x1f, 0x00, 0xf8, 0x3f, 0x00, 0xfc, 0x7f, 0x00,
   0xfe, 0xff, 0x00, 0xfe, 0xff, 0x00, 0xff, 0xff, 0x01, 0xff, 0xff, 0x01,
   0xff, 0xff, 0x01, 0xff, 0xff, 0x01, 0xff, 0xff, 0x01, 0xfe, 0xff, 0x00,
   0xfe, 0xff, 0x00, 0xfc, 0x7f, 0x00, 0xf8, 0x3f, 0x00, 0xf0, 0x1f, 0x00,
   0xc0, 0x07, 0x00};
