/* XPM */
static const char * jx_busy_6_small[] = {
"16 16 9 1",
" 	c None",
".	c #808080",
"+	c #999999",
"@	c #666666",
"#	c #B2B2B2",
"$	c #4C4C4C",
"%	c #000000",
"&	c #333333",
"*	c #1A1A1A",
"       ..       ",
"      ....      ",
"   ++ .... @@   ",
"  ++++ .. @@@@  ",
"  ++++    @@@@  ",
"   ++      @@   ",
" ##          $$ ",
"####        $$$$",
"####        $$$$",
" ##          $$ ",
"   %%      &&   ",
"  %%%%    &&&&  ",
"  %%%% ** &&&&  ",
"   %% **** &&   ",
"      ****      ",
"       **       "};
