/* XPM */
static char * jx_binary_file_selected_small[] = {
"15 15 4 1",
" 	c None",
".	c gray40",
"X	c gray60",
"o	c gray50",
"               ",
"  ........     ",
"  .XXXXXX..    ",
"  .XXXXXX.X.   ",
"  .XXXXXX...o  ",
"  .XXXXXXXX.o  ",
"  .XXXXXXXX.o  ",
"  .XXXXXXXX.o  ",
"  .XXXXXXXX.o  ",
"  .XXXXXXXX.o  ",
"  .XXXXXXXX.o  ",
"  .XXXXXXXX.o  ",
"  ..........o  ",
"   oooooooooo  ",
"               "};
