#define jx_beachball_4_cursor_width 17
#define jx_beachball_4_cursor_height 17
static char jx_beachball_4_cursor_bits[] = {
   0x00, 0x00, 0x00, 0xc0, 0x07, 0x00, 0xf0, 0x1f, 0x00, 0xf8, 0x3f, 0x00,
   0xf4, 0x5f, 0x00, 0xe4, 0x4f, 0x00, 0xc2, 0x87, 0x00, 0x82, 0x83, 0x00,
   0x02, 0x81, 0x00, 0x82, 0x83, 0x00, 0xc2, 0x87, 0x00, 0xe4, 0x4f, 0x00,
   0xf4, 0x5f, 0x00, 0xf8, 0x3f, 0x00, 0xf0, 0x1f, 0x00, 0xc0, 0x07, 0x00,
   0x00, 0x00, 0x00};
