/* XPM */
static char * jx_cdrom_disk_selected_large[] = {
"32 32 17 1",
" 	c #FFFFFFFFFFFF",
".	c #08200C300000",
"X	c #000000000000",
"o	c #9E799A699E79",
"O	c #9E798A289E79",
"+	c #38E330C230C2",
"@	c #69A661855965",
"#	c #8E388A288E38",
"$	c #596551445144",
"%	c #596571C64103",
"&	c #A699A289A699",
"*	c #C71BC30BC71B",
"=	c #410345144103",
"-	c #69A671C671C6",
";	c #CF3CCB2BCF3C",
":	c #71C671C69658",
">	c #965871C671C6",
"                                ",
"                                ",
"                                ",
"                                ",
"             .XXX.              ",
"           XXoooooXX            ",
"         XXoooooooooXX          ",
"        XoooooooooooooX         ",
"       XoooooooooooooooX        ",
"      XoooooooooooooooooX       ",
"     XoooooooooooooooooooX      ",
"     XoooooooooooooooooooX      ",
"    XooooooooOO+@#ooooooooX     ",
"    Xooooooo$@XXXX@oooooooX     ",
"   Xooooooo%@#&*&=X#oooooooX    ",
"   Xooooooo-X&   &X@oooooooX    ",
"   Xooooooo+X;   ;X+oooooooX    ",
"   Xooooooo@X&   &X-oooooooX    ",
"   Xooooooo#X=&*&#@-oooooooX    ",
"    Xooooooo@XXXX@:oooooooX     ",
"    Xoooooooo#@+->ooooooooX     ",
"     XoooooooooooooooooooX      ",
"     XoooooooooooooooooooX      ",
"      XoooooooooooooooooX       ",
"       XoooooooooooooooX        ",
"        XoooooooooooooX         ",
"         XXoooooooooXX          ",
"           XXoooooXX            ",
"             XXXXX              ",
"                                ",
"                                ",
"                                "};
