/* XPM */
static char * jx_cdrom_disk_small[] = {
"18 18 62 1",
" 	c None",
".	c #000000000000",
"X	c #E79DBAEAE79D",
"o	c #CF3CBAEAC71B",
"O	c #C71BC30BC71B",
"+	c #208120810000",
"@	c #DF7DDB6CFFFF",
"#	c #F7DEC30BF7DE",
"$	c #CF3CCB2BCF3C",
"%	c #D75CD34CD75C",
"&	c #BEFBFBEEEFBE",
"*	c #CF3CEBADF7DE",
"=	c #EFBED34CFFFF",
"-	c #CF3CBAEACF3C",
";	c #DF7DDB6CDF7D",
":	c #E79DE38DE79D",
">	c #BEFBF3CEC71B",
",	c #BEFBFBEED75C",
"<	c #DF7DE38DFFFF",
"1	c #EFBEEBADE79D",
"2	c #F7DEF3CEF7DE",
"3	c #EFBEEBADEFBE",
"4	c #BEFBDB6CBEFB",
"5	c #BEFBE38DBEFB",
"6	c #DF7DBAEADF7D",
"7	c #BEFBC30BBEFB",
"8	c #BEFBCB2BBEFB",
"9	c #9E79BAEA9E79",
"0	c #A6998A28AEBA",
"q	c #492449244924",
"w	c #8E388A288E38",
"e	c #D75CD34CDF7D",
"r	c #28A228A228A2",
"t	c #596571C64103",
"y	c #B6DAB2CAB6DA",
"u	c #CF3CCB2BC71B",
"i	c #9E799A699E79",
"p	c #CF3CCB2BD75C",
"a	c #BEFBB2CAB6DA",
"s	c #71C682078617",
"d	c #BEFBE38DE79D",
"f	c #BEFBD34CD75C",
"g	c #B6DAC71BCF3C",
"h	c #965871C671C6",
"j	c #CF3CDB6CFFFF",
"k	c #BEFBEBADFFFF",
"l	c #D75CD34CCF3C",
"z	c #D75CBAEABEFB",
"x	c #EFBEBAEAD75C",
"c	c #C71BC30BF7DE",
"v	c #BEFBD34CFFFF",
"b	c #BEFBE38DFFFF",
"n	c #BEFBF3CEFFFF",
"m	c #FFFFFBEEEFBE",
"M	c #CF3CBAEABEFB",
"N	c #F7DEBAEAC71B",
"B	c #DF7DBAEAE79D",
"V	c #9E79AEBACF3C",
"C	c #E79DBAEABEFB",
"Z	c #EFBEBAEACF3C",
"A	c #D75CBAEAEFBE",
"S	c #EFBEB2CABEFB",
"       ....       ",
"     ..XoOO.+     ",
"    .@#XoO$%%.    ",
"   .&*=X-O$%;:.   ",
"  .>,&<#-O%;123.  ",
" .45>,*6-OO:223;. ",
" .784>90q.we3:;;r ",
".OOOO9tw%y.w;%%%%.",
".u$uOiqy  %.$$$$$.",
".%pp%a.%  yq$OOOO.",
".%%;;$w.y%wsdfgOO.",
" .;:32%w.qhjkkdg. ",
" .:223;lOzxcvbnn. ",
"  .m3;;pOMNBcvV.  ",
"   .;;luOoCZAV.   ",
"    .%%$OOCSS.    ",
"     ..$OOM..     ",
"       ....       "};
