#define jx_drag_all_vert_line_cursor_mask_width 17
#define jx_drag_all_vert_line_cursor_mask_height 17
static char jx_drag_all_vert_line_cursor_mask_bits[] = {
   0xf0, 0x1f, 0x00, 0xf0, 0x1f, 0x00, 0xf0, 0x1f, 0x00, 0xf0, 0x1f, 0x00,
   0xf0, 0x1f, 0x00, 0xfc, 0x7f, 0x00, 0xfe, 0xff, 0x00, 0xff, 0xff, 0x01,
   0xff, 0xff, 0x01, 0xff, 0xff, 0x01, 0xfe, 0xff, 0x00, 0xfc, 0x7f, 0x00,
   0xf0, 0x1f, 0x00, 0xf0, 0x1f, 0x00, 0xf0, 0x1f, 0x00, 0xf0, 0x1f, 0x00,
   0xf0, 0x1f, 0x00};
