#define jx_drag_file_cursor_width 15
#define jx_drag_file_cursor_height 22
static char jx_drag_file_cursor_bits[] = {
   0x00, 0x00, 0xfe, 0x01, 0x02, 0x03, 0x02, 0x05, 0x02, 0x0f, 0x02, 0x08,
   0x02, 0x08, 0x42, 0x08, 0xc2, 0x08, 0xc2, 0x09, 0xc2, 0x0b, 0xc2, 0x07,
   0xc2, 0x0f, 0xde, 0x1f, 0xc0, 0x3f, 0xc0, 0x07, 0xc0, 0x06, 0x40, 0x0c,
   0x00, 0x0c, 0x00, 0x18, 0x00, 0x18, 0x00, 0x00};
