#define jx_drag_vert_line_cursor_mask_width 17
#define jx_drag_vert_line_cursor_mask_height 17
static char jx_drag_vert_line_cursor_mask_bits[] = {
   0x80, 0x03, 0x00, 0x80, 0x03, 0x00, 0x80, 0x03, 0x00, 0x80, 0x03, 0x00,
   0x80, 0x03, 0x00, 0x9c, 0x73, 0x00, 0x9e, 0xf3, 0x00, 0xff, 0xff, 0x01,
   0xff, 0xff, 0x01, 0xff, 0xff, 0x01, 0x9e, 0xf3, 0x00, 0x9c, 0x73, 0x00,
   0x80, 0x03, 0x00, 0x80, 0x03, 0x00, 0x80, 0x03, 0x00, 0x80, 0x03, 0x00,
   0x80, 0x03, 0x00};
