#define jx_drag_copy_object_cursor_width 29
#define jx_drag_copy_object_cursor_height 25
static char jx_drag_copy_object_cursor_bits[] = {
   0x00, 0x00, 0x00, 0x00, 0xfe, 0xff, 0x0f, 0x00, 0x02, 0x00, 0x08, 0x01,
   0x02, 0x00, 0x08, 0x01, 0x02, 0x00, 0x08, 0x01, 0x02, 0x00, 0xe8, 0x0f,
   0x02, 0x00, 0x08, 0x01, 0x02, 0x00, 0x08, 0x01, 0x02, 0x00, 0x08, 0x01,
   0x02, 0x00, 0x08, 0x00, 0x02, 0x04, 0x08, 0x00, 0x02, 0x0c, 0x08, 0x00,
   0x02, 0x1c, 0x08, 0x00, 0x02, 0x3c, 0x08, 0x00, 0x02, 0x7c, 0x08, 0x00,
   0x02, 0xfc, 0x08, 0x00, 0x02, 0xfc, 0x09, 0x00, 0x02, 0xfc, 0x0b, 0x00,
   0x02, 0x7c, 0x08, 0x00, 0xfe, 0x6d, 0x0f, 0x00, 0x00, 0xc4, 0x00, 0x00,
   0x00, 0xc0, 0x00, 0x00, 0x00, 0x80, 0x01, 0x00, 0x00, 0x80, 0x01, 0x00,
   0x00, 0x00, 0x00, 0x00};
