#define jx_drag_vert_line_cursor_width 17
#define jx_drag_vert_line_cursor_height 17
static char jx_drag_vert_line_cursor_bits[] = {
   0x00, 0x00, 0x00, 0x00, 0x01, 0x00, 0x00, 0x01, 0x00, 0x00, 0x01, 0x00,
   0x00, 0x01, 0x00, 0x00, 0x01, 0x00, 0x08, 0x21, 0x00, 0x04, 0x41, 0x00,
   0xfe, 0xff, 0x00, 0x04, 0x41, 0x00, 0x08, 0x21, 0x00, 0x00, 0x01, 0x00,
   0x00, 0x01, 0x00, 0x00, 0x01, 0x00, 0x00, 0x01, 0x00, 0x00, 0x01, 0x00,
   0x00, 0x00, 0x00};
