#define jx_drag_file_cursor_mask_width 15
#define jx_drag_file_cursor_mask_height 22
static char jx_drag_file_cursor_mask_bits[] = {
   0xff, 0x01, 0xff, 0x03, 0xff, 0x07, 0xff, 0x0f, 0xff, 0x1f, 0xff, 0x1f,
   0xff, 0x1f, 0xff, 0x1f, 0xff, 0x1f, 0xff, 0x1f, 0xff, 0x1f, 0xff, 0x1f,
   0xff, 0x3f, 0xff, 0x7f, 0xff, 0x7f, 0xe0, 0x7f, 0xe0, 0x0f, 0xe0, 0x1e,
   0x60, 0x1e, 0x00, 0x3c, 0x00, 0x3c, 0x00, 0x18};
