#define jx_drag_directory_cursor_mask_width 16
#define jx_drag_directory_cursor_mask_height 22
static char jx_drag_directory_cursor_mask_bits[] = {
   0xf8, 0x00, 0xfc, 0x01, 0xfe, 0x3f, 0xff, 0x7f, 0xff, 0xff, 0xff, 0xff,
   0xff, 0xff, 0xff, 0xff, 0xff, 0xff, 0xff, 0xff, 0xff, 0xff, 0xff, 0xff,
   0xff, 0xff, 0xff, 0xff, 0xe0, 0x7f, 0xe0, 0x7f, 0xe0, 0x0f, 0xe0, 0x1e,
   0x60, 0x1e, 0x00, 0x3c, 0x00, 0x3c, 0x00, 0x18};
