#define jx_drag_file_and_directory_cursor_mask_width 17
#define jx_drag_file_and_directory_cursor_mask_height 27
static char jx_drag_file_and_directory_cursor_mask_bits[] = {
   0xf8, 0x00, 0x00, 0xfc, 0x01, 0x00, 0xfe, 0x7f, 0x00, 0xff, 0xff, 0x00,
   0xff, 0xff, 0x00, 0xff, 0xff, 0x00, 0xff, 0xff, 0x00, 0xff, 0xff, 0x00,
   0xff, 0xff, 0x00, 0xff, 0xff, 0x00, 0xff, 0xff, 0x00, 0xff, 0xff, 0x00,
   0xff, 0xff, 0x00, 0xff, 0xff, 0x00, 0xfc, 0x7f, 0x00, 0xfc, 0x7f, 0x00,
   0xfc, 0x7f, 0x00, 0xfc, 0x7f, 0x00, 0xfc, 0xff, 0x00, 0xfc, 0xff, 0x01,
   0x80, 0xff, 0x01, 0x80, 0x3f, 0x00, 0x80, 0x7b, 0x00, 0x80, 0x79, 0x00,
   0x00, 0xf0, 0x00, 0x00, 0xf0, 0x00, 0x00, 0x60, 0x00};
