/* XPM */
static char * jx_edit_cut[] = {
"13 17 2 1",
"  c None",
"+ c black",
"   +    +    ",
"   +    +    ",
"   +    +    ",
"   +    +    ",
"    +  +     ",
"    ++++     ",
"     ++      ",
"     ++      ",
"     ++      ",
"    ++++     ",
"    +  +++   ",
"   ++  +  +  ",
"  +  + +  +  ",
"  +  + +  +  ",
"  +  + +  +  ",
"  +  +  ++   ",
"   ++        "};
