/* XPM */
static char * jx_edit_paste[] = {
"17 15 4 1",
"  c None",
"# c #000000",
"a c #ffffff",
"b c #c0c0c0",
"                 ",
"                 ",
"      ####       ",
"  #####aa#####   ",
" #bbb#a##a#bbb#  ",
" #bb#aaaaaa#bb#  ",
" #bb########bb#  ",
" #bbbbbb#######  ",
" #bbbbbb#aaaa##  ",
" #bbbbbb#aaaa#a# ",
" #bbbbbb#a##a### ",
" #bbbbbb#aaaaaa# ",
" #bbbbbb#a####a# ",
"  #######aaaaaa# ",
"        ######## "};
