/* XPM */
static char * jx_edit_shift_left[] = {
"20 11 3 1",
" 	c None",
"X	c #808080",
"+	c red",
"                    ",
"     +    XXX XX XX ",
"    ++              ",
"   +++ XX XX XXX XX ",
"  ++++              ",
" +++++ XXX XXX XX   ",
"  ++++              ",
"   +++ XX XXX XXX   ",
"    ++              ",
"     +    XX XX XXX ",
"                    "};
