/* XPM */
static char * jx_file_save[] = {
"14 17 5 1",
" 	c None",
".	c #000000000000",
"X	c #CCCCCCCCCCCC",
"o	c #FFFFFFFFFFFF",
"O	c #800080008000",
"              ",
"              ",
"............. ",
".XooooooooXX.O",
".Xo.....ooXX.O",
".XooooooooXX.O",
".Xo...ooooXX.O",
".XooooooooXX.O",
".XooooooooXX.O",
".XXXXXXXXXXX.O",
".XOOOOOOOOOO.O",
".XOOOOOOOOOO.O",
".XOOXXXXXOOX.O",
".XOOXXOOXOOX.O",
".XOOXXOOXOOX.O",
".............O",
" OOOOOOOOOOOOO"};
