/* XPM */
static char *jx_floppy_disk_selected_large[] = {
/* width height num_colors chars_per_pixel */
"    32    32        8            1",
/* colors */
"  c None",
"# c black",
"a c gray60",
"b c gray70",
"c c gray20",
"d c gray30",
"e c gray40",
"f c black",
/* pixels */
" fffffffffffffffffffffffffff    ",
"faaaeaadddddddddddddddddbaacf   ",
"faaaeaadddddddddd###ddddbaaacf  ",
"faaaeaaddddddddd#aaabdddbaaaacf ",
"faaaeaaddddddddd#aaabdddbaaaaacf",
"faaaeaaddddddddd#aaabdddbaaaaaaf",
"faaaeaaddddddddd#aaabdddbaaaaaaf",
"faaaeaaddddddddd#aaabdddbaaaaaaf",
"faaaeaaddddddddd#aaabdddbaaaaaaf",
"faaaeaaddddddddddbbbadddbaaaaaaf",
"faaaeaaadddddddddddddddabaaaaaaf",
"faaaabbbbbbbbbbbbbbbbbbbbaaaaaaf",
"faaaaaaaaaaaaaaaaaaaaaaaaaaaaaaf",
"faaaaaaaaaaaaaaaaaaaaaaaaaaaaaaf",
"faaaaeeeeeeeeeeeeeeeeeeeeeeaaaaf",
"faaaeaaaaaaaaaaaaaaaaaaaaaabaaaf",
"faaaeaaaaaaaaaaaaaaaaaaaaaabaaaf",
"faaaeaaaaaaaaaaaaaaaaaaaaaabaaaf",
"faaaeaaaaaaaaaaaaaaaaaaaaaabaaaf",
"faaaeaaaaaaaaaaaaaaaaaaaaaabaaaf",
"faaaeaaaaaaaaaaaaaaaaaaaaaabaaaf",
"faaaeaaaaaaaaaaaaaaaaaaaaaabaaaf",
"faaaeaaaaaaaaaaaaaaaaaaaaaabaaaf",
"faaaeaaaaaaaaaaaaaaaaaaaaaabaaaf",
"faaaeaaaaaaaaaaaaaaaaaaaaaabaaaf",
"faaaeaaaaaaaaaaaaaaaaaaaaaabaaaf",
"faaaeaaaaaaaaaaaaaaaaaaaaaabaaaf",
"faddeaaaaaaaaaaaaaaaaaaaaaabaaaf",
"faddeaaaaaaaaaaaaaaaaaaaaaabaaaf",
"faaaeaaaaaaaaaaaaaaaaaaaaaabaaaf",
"faaaeaaaaaaaaaaaaaaaaaaaaaabaaaf",
" ffffffffffffffffffffffffffffff "
};
