/* XPM */
static char * jx_find_next[] = {
"17 16 7 1",
" 	c None",
".	c #CCCCCCCCCCCC",
"X	c #000000000000",
"o	c #800080008000",
"O	c #FFFFFFFFFFFF",
"+	c #333333333333",
"@	c #000000008000",
"                 ",
"  .XXX.          ",
" .Xo  X.         ",
" XoOO  o         ",
" X O   X         ",
" X   OoX         ",
" .X  oX++        ",
"  .oXX+ ++       ",
"       + +       ",
"        ++       ",
"             @   ",
"             @@  ",
"    @ @ @ @@@@@@ ",
"             @@  ",
"             @   ",
"                 "};
