/* XPM */
static char * jx_file_revert_to_saved[] = {
"16 16 6 1",
"  c None",
". c black",
"# c #C0C0C0",
"a c white",
"b c #DCDCDC",
"c c #808080",
"                ",
" .......        ",
" .aaaabb.       ",
" .aaaa#ab.      ",
" .aaaa#aab.     ",
" .aaaa#....     ",
" .aaaaa###....c ",
" .aa.aaa...   .c",
" .aa..a.aa.    .",
" .aa...aaa.    .",
" .aa....aa.    .",
" .aa.....a.   .c",
" .aaaaaaaa.  c. ",
" ..........     ",
"                ",
"                "};
