/* XPM */
static char * jx_folder_locked_small[] = {
"15 15 8 1",
" 	c white",
".	c #808080808080",
"X	c yellow",
"o	c #C0C0C0C0C0C0",
"O	c black",
"+	c white",
"@	c brown",
"*	c #FFFFFFFFCF3C",
"               ",
"  .....        ",
" .XoXoXOOOO    ",
".ooooooO@@O..O ",
".++++++O@@O++OO",
".XoXoXoO@@OXo.O",
".oXoXoOOOOOOX.O",
".XoXoXO****Oo.O",
".oXoXoO*..*OX.O",
".XoXoXO*..*Oo.O",
".oXoXoOOOOOOX.O",
".XoXoXoO@@OXo.O",
".......O@@O...O",
" OOOOOOO@@OOOO ",
"       OOOO    "};
