/* XPM */
static char * jx_folder_selected_large[] = {
"32 32 7 1",
" 	c None",
".	c #808080808080",
"X	c gray60",
"o	c black",
"O	c #808080800000",
"+	c gray70",
"-	c gray50",
"                                ",
"                                ",
"                                ",
"                                ",
"                                ",
"    .........                   ",
"   .XXXXXXXXX.                  ",
"  .XXXXXXXXXXX.                 ",
" .XXXXXXXXXXXXX.                ",
".---------------..............o ",
".+++++++++++++++++++++++++++++oo",
".XXXXXXXXXXXXXXXXXXXXXXXXXXXXXOo",
".XXXXXXXXXXXXXXXXXXXXXXXXXXXXXOo",
".XXXXXXXXXXXXXXXXXXXXXXXXXXXXXOo",
".XXXXXXXXXXXXXXXXXXXXXXXXXXXXXOo",
".XXXXXXXXXXXXXXXXXXXXXXXXXXXXXOo",
".XXXXXXXXXXXXXXXXXXXXXXXXXXXXXOo",
".XXXXXXXXXXXXXXXXXXXXXXXXXXXXXOo",
".XXXXXXXXXXXXXXXXXXXXXXXXXXXXXOo",
".XXXXXXXXXXXXXXXXXXXXXXXXXXXXXOo",
".XXXXXXXXXXXXXXXXXXXXXXXXXXXXXOo",
".XXXXXXXXXXXXXXXXXXXXXXXXXXXXXOo",
".XXXXXXXXXXXXXXXXXXXXXXXXXXXXXOo",
".XXXXXXXXXXXXXXXXXXXXXXXXXXXXXOo",
".XXXXXXXXXXXXXXXXXXXXXXXXXXXXXOo",
".XXXXXXXXXXXXXXXXXXXXXXXXXXXXXOo",
".XXXXXXXXXXXXXXXXXXXXXXXXXXXXXOo",
".XXXXXXXXXXXXXXXXXXXXXXXXXXXXXOo",
".XXXXXXXXXXXXXXXXXXXXXXXXXXXXXOo",
".XXXXXXXXXXXXXXXXXXXXXXXXXXXXXOo",
".OOOOOOOOOOOOOOOOOOOOOOOOOOOOOOo",
" oooooooooooooooooooooooooooooo "};
