/* XPM */
static char * jx_find[] = {
"17 16 5 1",
"  c None",
"c c white",
". c black",
"# c #333333333333",
"a c #800080008000",
"     ....        ",
"   ..    ..      ",
"  .accc   a.     ",
"  .cc      .     ",
" . c        .    ",
" . c        .    ",
" .          .    ",
" .          .    ",
"  .       c.     ",
"  .a     ca.a    ",
"   ..   ca###    ",
"     ....# ###   ",
"          # ###  ",
"           # ### ",
"            # ## ",
"             ##  "};
