/* XPM */
static char * jx_find_selection_forward[] = {
"17 18 7 1",
" 	c None",
".	c #CCCCCCCCCCCC",
"X	c #000000000000",
"o	c #800080008000",
"O	c #FFFFFFFFFFFF",
"+	c #333333333333",
"@	c #000000008000",
"                 ",
"            X    ",
"            X    ",
"  .XXX.    X X   ",
" .Xo  X.   XXX   ",
" XoOO  o  X   X  ",
" X O   X  X   X  ",
" X   OoX         ",
" .X  oX++        ",
"  .oXX+ ++       ",
"       + +       ",
"        ++       ",
"             @   ",
"             @@  ",
"    @ @ @ @@@@@@ ",
"             @@  ",
"             @   ",
"                 "};
