/* XPM */
static char *jx_hard_disk_large[] = {
/* width height num_colors chars_per_pixel */
"    32    32        6            1",
/* colors */
"  c None",
"# c #000000",
". c gray80",
"X c red",
"+ c gray60",
"- c gray90",
/* pixels */
"                                ",
"                                ",
"                                ",
"                                ",
"                                ",
"                                ",
"                                ",
"                                ",
"                                ",
"                                ",
"                                ",
"                                ",
"                                ",
"                                ",
"                                ",
"                                ",
"                                ",
"                                ",
"                                ",
" ############################## ",
"#..............................#",
"#..............................#",
"#++++++++++++++++++++++++++++++#",
"#------------------------------#",
"#..............................#",
"#..............................#",
"#....XX........................#",
"#....XX........................#",
"#..............................#",
"#..............................#",
" ############################## ",
"                                "
};
