#define jx_hand_cursor_width 16
#define jx_hand_cursor_height 16
static char jx_hand_cursor_bits[] = {
   0x80, 0x01, 0x70, 0x1A, 0x48, 0x26, 0x4A, 0x26,
   0x4D, 0x12, 0x49, 0x12, 0x09, 0x68, 0x01, 0x98,
   0x02, 0x88, 0x02, 0x40, 0x02, 0x20, 0x04, 0x20,
   0x04, 0x10, 0x08, 0x08, 0x08, 0x04, 0x08, 0x04};
