/* XPM */
static char * jx_replace_selection[] = {
"18 17 3 1",
"  c None",
". c #000000",
"# c #808080",
"                  ",
"   .       ...    ",
"  #.#       ..    ",
"  . .      . .    ",
" #...#            ",
" .   .    .       ",
" .   .            ",
"          .       ",
"   .              ",
"           . ###  ",
"  .          #  # ",
"         .   #  # ",
"   .     ..  ###  ",
"     . . ... #  # ",
"         ..  #  # ",
"         .   ###  ",
"                  "};
