#define jx_speed_scroll_cursor_mask_width 16
#define jx_speed_scroll_cursor_mask_height 20
static char jx_speed_scroll_cursor_mask_bits[] = {
   0x0c, 0x00, 0x1c, 0x00, 0x3c, 0x00, 0x7c, 0x00, 0xfc, 0x00, 0xfc, 0x01,
   0xfc, 0x03, 0xfc, 0x07, 0xfc, 0x0f, 0xfc, 0x0f, 0xfc, 0x1f, 0xfc, 0x1f,
   0xfc, 0x3f, 0xf8, 0x3f, 0xf8, 0x7f, 0xf0, 0x7f, 0xf0, 0xff, 0xe0, 0xff,
   0xe0, 0xff, 0xc0, 0xff};
