/* XPM */
static char * jx_source_file_small[] = {
"15 15 6 1",
" 	c None",
".	c gray40",
"X	c white",
"O	c gray50",
"-	c gray50",
"+	c blue",
"               ",
"  ........     ",
"  .XXXXXX..    ",
"  .XX+XXX.X.   ",
"  .X+XXXX...O  ",
"  .X+XXXXXX.O  ",
"  .X+XX---X.O  ",
"  .X+XXXXXX.O  ",
"  .X+XX---X.O  ",
"  .XX+XXXXX.O  ",
"  .XXXXX--X.O  ",
"  .XXXXXXXX.O  ",
"  ..........O  ",
"   OOOOOOOOOO  ",
"               "};
