/* XPM */
static char *jx_trash_can_empty_large[] = {
/* width height num_colors chars_per_pixel */
"    32    32       11            1",
/* colors */
"  c None",
". c white",
"# c #222222",
"a c #444444",
"b c #dddddd",
"c c #777777",
"d c #888888",
"e c #aaaaaa",
"f c #bbbbbb",
"g c #555555",
"h c black",
/* pixels */
"             hhhhhh             ",
"            hcbbecah            ",
"      hhhhhhhhhhhhhhhhhhhh      ",
"     hacceeb.bbeeddcccggaah     ",
"     hhhhhhhhhhhhhhhhhhhhhh     ",
"      hcefbbbfffeeeeccgggh      ",
"      hcef...bbbbeeeeecggh      ",
"      hceb...cbbbegeeccggh      ",
"      hceeb.ceebbgccec#cgh      ",
"      hceeb.ceebbgccec#ggh      ",
"      hceeb.ceebbgccec#ggh      ",
"      hceeb.ceebbgccec#ggh      ",
"      hceeb.ceebbgccec#ggh      ",
"      hceeb.ceebbgccec#ggh      ",
"      hceeb.ceebbgccec#ggh      ",
"      hceeb.ceebbgccec#ggh      ",
"      hceeb.ceebbgccec#ggh      ",
"      hceeb.ceebbgccec#ggh      ",
"      hceeb.ceebbgccec#ggh      ",
"      hceeb.ceebbgccec#ggh      ",
"      hceeb.ceebbgccec#ggh      ",
"      hceeb.ceebbgccec#ggh      ",
"      hceeb.ceebbgccec#ggh      ",
"      hceeb.ceebbgccec#ggh      ",
"      hceeb.ceebbgccec#ggh      ",
"      hceeb.ceebbgccec#ggh      ",
"      hceeb.ceebbgccec#ggh      ",
"      hceeb.ceebbgccec#ggh      ",
"      hceb...cbbbegeecgcgh      ",
"      hcef...bbbbbeeeccggh      ",
"      hceb...bbffeecccgggh      ",
"       hhhhhhhhhhhhhhhhhh       "
};
