/* XPM */
static char *jx_trash_can_full_small[] = {
/* width height num_colors chars_per_pixel */
"    16    16        8            1",
/* colors */
"  c None",
". c #ffffff",
"# c #222222",
"a c #dddddd",
"b c #777777",
"c c #aaaaaa",
"d c #555555",
"e c #000000",
/* pixels */
"      eee       ",
"     eacbe      ",
"   eeeeeeeee    ",
"  ebc..cbbd#e   ",
"  eeeeeeeeeee   ",
"   ec.ccbbde    ",
"  ec.b.ac#bde   ",
"  e.b..dcc#be   ",
" ec.b..dcc#bde  ",
" ec.b.adcc#bde  ",
" ec.b.adcc#bde  ",
" ec.b.adcc#bde  ",
"  eabaadcc#be   ",
"  ecabccc#bde   ",
"   ecaccbbde    ",
"    eeeeeee     "
};
