/* XPM */
static char *jx_trash_can_empty_selected_small[] = {
/* width height num_colors chars_per_pixel */
"    16    16       11            1",
/* colors */
"  c None",
". c #cccccc",
"# c black",
"a c #999999",
"b c black",
"c c #aaaaaa",
"d c #bbbbbb",
"e c #444444",
"f c #777777",
"g c #222222",
"h c black",
/* pixels */
"      hhh       ",
"     hdfgh      ",
" ehhhhhhhhhhhe  ",
" hefddcffeg##h  ",
" hhhhhhhhhhhhh  ",
"  heceebbb##h   ",
"  hf..ccffegh   ",
"  hf.fcgf#e#h   ",
"  hf.fcgf#e#h   ",
"  hf.fcgf#e#h   ",
"  hf.fcgf#e#h   ",
"  hf.fcgf#e#h   ",
"  hf.fcgf#e#h   ",
"  hf..ccffegh   ",
"  heacffggg#h   ",
"   hhhhhhhhh    "
};
