/* XPM */
static char *jx_trash_can_full_selected_large[] = {
/* width height num_colors chars_per_pixel */
"    32    32       13            1",
/* colors */
"  c None",
". c #cccccc",
"# c black",
"a c #999999",
"b c #111111",
"c c #aaaaaa",
"d c #bbbbbb",
"e c #444444",
"f c #555555",
"g c #777777",
"h c #888888",
"i c #222222",
"j c black",
/* pixels */
"             jjjjjj             ",
"            jeccgfbj            ",
"      jjjjjjjjjjjjjjjjjjjj      ",
"     jbeeggc.ccggffeeeiibbj     ",
"     jjjjjjjjjjjjjjjjjjjjjj     ",
"      jegcccchhhggggeeibbj      ",
"      jegddddccccggggeiibj      ",
"      jegccddceccciggeiiej      ",
"     jegcgcddehhcieege#eiej     ",
"     jeccgc..egacieege#ibej     ",
"    jegcgcc.ehaaccieege#ibej    ",
"    jeccgc..ehc.dcieege#ibej    ",
"   jegcgc..fhc..ddcieege#ibej   ",
"   jegcgc..fhc...dcieege#ibej   ",
"   jegcgc..fhc...dcieege#ibej   ",
"   jegcgc..fhc...dcieege#ibej   ",
"   jegcgc..fhc...dcieege#ibej   ",
"   jegcgc..fhc...dcieege#ibej   ",
"   jegcgc..fgc...dcieege#ibej   ",
"   jegcgc..fgc..dccieege#ibej   ",
"   jegcgc..fgh.dcccieege#ibej   ",
"   jegcgc..fghdccccieege#ibej   ",
"   jegcghccfghcccccieege#ibej   ",
"    jegcghccfghcccieegg#ibej    ",
"    jegcghccfghcccieege#ibej    ",
"     jecghcccfghcieegge#bej     ",
"     jegcgcccfghaieege#ibej     ",
"     jegcgacafghaieege#bbej     ",
"      jehchaafgahiegfeibej      ",
"      jeg..caaahgggfeeibej      ",
"      jeggggggggffeeeibbij      ",
"       jjjjjjjjjjjjjjjjjj       "
};
