/* XPM */
static char * jx_up_chevron[] = {
"8 8 2 1",
"  c None",
"* c black",
"   **   ",
"  ****  ",
" **  ** ",
"**    **",
"   **   ",
"  ****  ",
" **  ** ",
"**    **"};
