/* XPM */
static char * jx_un_warning[] = {
"32 32 3 1",
" 	c None",
".	c red",
"X	c wheat",
"        ................        ",
"       ..................       ",
"      ....................      ",
"     ..........X...........     ",
"    ..........XXX...........    ",
"   ........X..XXX..XX........   ",
"  ........XXX.XXX.XXX.........  ",
" .........XXX.XXX.XXX.......... ",
"........X.XXX.XXX.XXX...........",
".......XX.XXX.XXX.XXX...........",
".......XX.XXX.XXX.XXX...........",
".......XX.XXX.XXX.XXX...........",
".......XX.XXX.XXX.XXX...........",
".......XX.XXX.XXX.XXX...........",
".......XX.XXXXXXXXXXX...XXX.....",
".......XXXXXXXXXXXXXX..XXXX.....",
".......XXXXXXXXXXXXXX..XXXX.....",
".......XXXXXXXXXXXXXX.XXXX......",
".......XXXXXXXXXXXXXXXXXXX......",
".......XXXXXXXXXXXXXXXXXX.......",
".......XXXXXXXXXXXXXXXXXX.......",
".......XXXXXXXXXXXXXXXXX........",
".......XXXXXXXXXXXXXXXXX........",
".......XXXXXXXXXXXXXXXX.........",
" ......XXXXXXXXXXXXXXXX........ ",
"  .....XXXXXX.XXXXXXXX........  ",
"   .....XXXXXX.XXXXXX........   ",
"    ........................    ",
"     ......................     ",
"      ....................      ",
"       ..................       ",
"        ................        "};
