/* XPM */
static char * jx_un_error[] = {
"32 32 3 1",
" 	c None",
".	c black",
"X	c yellow",
"               ..               ",
"              ....              ",
"              ....              ",
"             ..XX..             ",
"             ..XX..             ",
"            ..XXXX..            ",
"            ..XXXX..            ",
"           ..XXXXXX..           ",
"           ..XX..XX..           ",
"          ..XX....XX..          ",
"          ..XX....XX..          ",
"         ..XXX....XXX..         ",
"         ..XXX....XXX..         ",
"        ..XXXX....XXXX..        ",
"        ..XXXX....XXXX..        ",
"       ..XXXXX....XXXXX..       ",
"       ..XXXXX....XXXXX..       ",
"      ..XXXXXX....XXXXXX..      ",
"      ..XXXXXX....XXXXXX..      ",
"     ..XXXXXXX....XXXXXXX..     ",
"     ..XXXXXXXX..XXXXXXXX..     ",
"    ..XXXXXXXXX..XXXXXXXXX..    ",
"    ..XXXXXXXXXXXXXXXXXXXX..    ",
"   ..XXXXXXXXXXXXXXXXXXXXXX..   ",
"   ..XXXXXXXXXX..XXXXXXXXXX..   ",
"  ..XXXXXXXXXX....XXXXXXXXXX..  ",
"  ..XXXXXXXXXX....XXXXXXXXXX..  ",
" ..XXXXXXXXXXXX..XXXXXXXXXXXX.. ",
" ..XXXXXXXXXXXXXXXXXXXXXXXXXX.. ",
"..XXXXXXXXXXXXXXXXXXXXXXXXXXXX..",
"................................",
" .............................. "};
