/* XPM */
static char * jx_zip_disk_selected_large[] = {
"32 32 7 1",
" 	c None",
".	c black",
"-	c gray80",
"X	c gray40",
"o	c gray70",
"O	c #B2CA00000000",
"+	c #30C200009E79",
"     ......................     ",
"   ....XXXXX.ooooooooooo.X...   ",
" ...o.XXXXXX.ooooooooooo.X.o... ",
"..XXo.XXXXXX.............X.oXX..",
".XXXo.XXXXXXXXXXXXXXXXXXXX.oXXX.",
".XXXo.XXXXXXXXXX.XXXXXXXXX.oXXX.",
".XXXo.XXXXXXXXXXXXXXXXXXXX.oXXX.",
".XXXo.XXXXX....X.X...XXXXX.oXXX.",
".XXXo.XXXXXXX.XX.X.XX.XXXX.oXXX.",
".XXXo.XXXXXX.XXX.X.XX.XXXX.oXXX.",
".XXXo.XXXXX....X.X...XXXXX.oXXX.",
".XXXo.XXXXXXXXXXXX.XXXXXXX.oXXX.",
".XXXo.XXXXXXXXXXXXXXXXXXXX.oXXX.",
".XXXo......................oXXX.",
".XXXo.----.OOOOOOOOOOOOOOO.oXXX.",
".XXXo.----.OOOOOOOOOOOOOOO.oXXX.",
".XXXo.----.OOOOOOOOOOOOOOO-++XX.",
".XXXo....................-++++X.",
".XXXo.--------------------++++X.",
".XXXo.---------------------++XX.",
".XXXo.---.--...---...------XXXX.",
".XXXo.--..-.---.-.---.-+++++++++",
".XXXo.---.-.---.-.---.-+OOOOOOO+",
".XXXo.---.-.---.-.---.-+OO---OO+",
".XXXo.---.-.---.-.---.-+OO---OO+",
".XXXo.---.--...---...--+OOO--OO+",
".XXXo.-----------------+OOO--OO+",
".XXXo.-----------------+OOO--OO+",
".XXXo..................+OOO--OO+",
".XXXo.XXXXXXXXXXXXXXXXX+OOO--OO+",
" .....XXXXXXXXXXXXXXXXX+OOOOOOO+",
"     ..................+++++++++"};
