/* XPM */
static char * new_planet_software_small_xpm[] = {
"16 16 148 2",
"  	c None",
". 	c #151B1B",
"+ 	c #191719",
"@ 	c #14191B",
"# 	c #050505",
"$ 	c #0B4444",
"% 	c #078284",
"& 	c #097071",
"* 	c #080D0F",
"= 	c #235657",
"- 	c #074244",
"; 	c #0F5655",
"> 	c #0C6868",
", 	c #0C4343",
"' 	c #074B4D",
") 	c #051013",
"! 	c #094243",
"~ 	c #0B0A0C",
"{ 	c #082A2B",
"] 	c #0A8A8B",
"^ 	c #089C9E",
"/ 	c #0A7A7B",
"( 	c #08AEAF",
"_ 	c #08B3B4",
": 	c #0D9B9A",
"< 	c #0AA7A7",
"[ 	c #0D9292",
"} 	c #0A6466",
"| 	c #1C2828",
"1 	c #06585A",
"2 	c #079FA0",
"3 	c #0C6464",
"4 	c #0E292E",
"5 	c #0B283D",
"6 	c #052233",
"7 	c #0E3333",
"8 	c #089196",
"9 	c #08AAAB",
"0 	c #0A9798",
"a 	c #0B1D22",
"b 	c #1B191B",
"c 	c #0D3339",
"d 	c #0A8C8D",
"e 	c #08A1A2",
"f 	c #0C4045",
"g 	c #093E65",
"h 	c #536A84",
"i 	c #4D6C8E",
"j 	c #316895",
"k 	c #105682",
"l 	c #083044",
"m 	c #0A8182",
"n 	c #076B72",
"o 	c #0C282D",
"p 	c #082527",
"q 	c #12504F",
"r 	c #113A59",
"s 	c #897578",
"t 	c #CB7866",
"u 	c #BB705E",
"v 	c #B77464",
"w 	c #1C6092",
"x 	c #075C92",
"y 	c #0B1516",
"z 	c #0D7075",
"A 	c #121112",
"B 	c #1E1917",
"C 	c #08242C",
"D 	c #265B81",
"E 	c #AC766B",
"F 	c #C87765",
"G 	c #D17A68",
"H 	c #B97362",
"I 	c #296694",
"J 	c #0863A6",
"K 	c #082133",
"L 	c #0A8888",
"M 	c #0D6F6F",
"N 	c #0D0D0D",
"O 	c #04151B",
"P 	c #08A5A6",
"Q 	c #112A31",
"R 	c #476A8A",
"S 	c #C97968",
"T 	c #827071",
"U 	c #1765A0",
"V 	c #063356",
"W 	c #0A7273",
"X 	c #0F6C6B",
"Y 	c #14242A",
"Z 	c #0B191B",
"` 	c #0A609E",
" .	c #0F64A3",
"..	c #6A646F",
"+.	c #AF7364",
"@.	c #A4756E",
"#.	c #09314D",
"$.	c #0D6A6B",
"%.	c #020809",
"&.	c #1E2324",
"*.	c #0A8889",
"=.	c #064047",
"-.	c #074B7C",
";.	c #A27570",
">.	c #526C8A",
",.	c #075F9E",
"'.	c #082631",
").	c #091515",
"!.	c #0A090A",
"~.	c #07797B",
"{.	c #0E2E2F",
"].	c #09426C",
"^.	c #21577E",
"/.	c #627387",
"(.	c #20404C",
"_.	c #080B0E",
":.	c #0A9393",
"<.	c #09595C",
"[.	c #031B1D",
"}.	c #044346",
"|.	c #0C6667",
"1.	c #0C5455",
"2.	c #0B2427",
"3.	c #0C374D",
"4.	c #102936",
"5.	c #0C3C3E",
"6.	c #064E4F",
"7.	c #081111",
"8.	c #074F4F",
"9.	c #124342",
"0.	c #0D9696",
"a.	c #092325",
"b.	c #060C0C",
"c.	c #083939",
"d.	c #044B53",
"e.	c #066E6F",
"f.	c #096263",
"g.	c #077577",
"h.	c #114042",
"i.	c #121E1E",
"j.	c #100A0B",
"k.	c #141B1A",
"l.	c #121012",
"m.	c #161B1C",
"n.	c #050A0C",
"o.	c #040305",
"p.	c #03080A",
"q.	c #121011",
"              .                 ",
"        +     @     #           ",
"  $ % & * = - ; > , , ' ) ! ~   ",
"  { ] ^ / ( _ : < _ _ [ } _ |   ",
"  1 2 _ ( 3 4 5 6 7 8 9 ( 0 a b ",
"  c d e f g h i j k l m _ n o   ",
"  p _ q r s t u v w x y ( z A   ",
"  B ( C D E F G H I J K L M N   ",
"  O P Q J R F S T U J V W X N   ",
"  Y : Z `  ...+.@.w J #.] $.%.  ",
"  &.*.=.-.J J ;.S >.,.'.( M ).  ",
"  !.~.9 {.].J ^./.(._.:._ <.[.  ",
"  }.|._ < 1.2.3.4.5.:._ _ 6.7.  ",
"  8.9._ _ _ _ P 9 _ 9 0.< a.b.  ",
"    c.d.e.f.g.6., h.i.j.k.b l.  ",
"    m.n.o.p.q.                  "};
