/* XPM */
static char * GNBFolderIcon[] = {
"15 15 5 1",
" 	c None",
".	c #666666666666",
"X	c #9292BBBBFFFF",
"o	c #999999999999",
"O	c #7F7F7F7F7F7F",
"               ",
"  .....        ",
" .XXXXX.       ",
".XXXXXXX...... ",
".oooooooXXXXX.O",
".XXXXXXXXXXXX.O",
".XXXXXXXXXXXX.O",
".XXXXXXXXXXXX.O",
".XXXXXXXXXXXX.O",
".XXXXXXXXXXXX.O",
".XXXXXXXXXXXX.O",
".XXXXXXXXXXXX.O",
"..............O",
" OOOOOOOOOOOOOO",
"               "};
