/* XPM */
static char *notebook[] = {
/* width height num_colors chars_per_pixel */
"    26    31        5            1",
/* colors */
". c None",
"# c #999999",
"a c #000000",
"b c #cccccc",
"c c #ffffff",
/* pixels */
".########################.",
"#.aabbbbbbbbbbbbbbbbbbbbca",
"##ccccccccccccccccccccb#ba",
".#b#ccccccccccccccccccb#ba",
"#.aaccccccccccccccccccb#ba",
"##ccccccccccccccccccccb#ba",
".#b#ccbbbbbbbbbbbbccccb#ba",
"#.aaccccccccccccccccccb#ba",
"##ccccccccccccccccccccb#ba",
".#b#ccccccccccccccccccb#ba",
"#.aaccbbbbbbbbbbbbbcccb#ba",
"##ccccccccccccccccccccb#ba",
".#b#ccccccccccccccccccb#ba",
"#.aaccccccccccccccccccb#ba",
"##ccccbbbbbbbbbbbbccccb#ba",
".#b#ccccccccccccccccccb#ba",
"#.aaccccccccccccccccccb#ba",
"##ccccccccccccccccccccb#ba",
".#b#ccbbbbbbbbbbbbbcccb#ba",
"#.aaccccccccccccccccccb#ba",
"##ccccccccccccccccccccb#ba",
".#b#ccccccccccccccccccb#ba",
"#.aaccbbbbbbbbbbbbbcccb#ba",
"##ccccccccccccccccccccb#ba",
".#b#ccccccccccccccccccb#ba",
"#.aaccccccccccccccccccb#ba",
"##ccccccccccccccccccccb#ba",
".#b#ccccccccccccccccccb#ba",
"#.aaccccccccccccccccccb#ba",
"##bbbbbbbbbbbbbbbbbbbbb#a.",
".aaaaaaaaaaaaaaaaaaaaaaa.."
};
