/* XPM */
static char * todourgent[] = {
"15 14 3 1",
" 	c None",
".	c #FFFFFFFFFFFF",
"X	c #FFFF10104242",
"      ..       ",
"     .XX.      ",
"    .XXXX.     ",
"    .XXXX.     ",
"    .XXXX.     ",
"     .XX.      ",
"     .XX.      ",
"     .XX.      ",
"     .XX.      ",
"     ....      ",
"      ..       ",
"     .XX.      ",
"     .XX.      ",
"      ..       "};
