/* XPM */
static const char * svn_info_log[] = {
"14 14 4 1",
" 	c None",
".	c #800080008000",
"X	c #FFFFFFFFFFFF",
"o	c #00000000FFFF",
"    ......    ",
"  ..XXXXXX..  ",
" .XXXXXXXXXX. ",
" .XXooooooXX. ",
".XXoooXXoooXX.",
".XXoooXXoooXX.",
".XXooooooooXX.",
".XXoooXXoooXX.",
".XXoooXXoooXX.",
".XXoooXXoooXX.",
" .XXooooooXX. ",
" .XXXXXXXXXX. ",
"  ..XXXXXX..  ",
"    ......    "};
