/* XPM */
static const char * svn_about_icon[] = {
"40 40 4 1",
" 	c None",
".	c #000000",
"+	c #FFFFFF",
"@	c #809CC8",
"                                        ",
"                                        ",
"                                        ",
"               ...........              ",
"            ...+++++++++++...           ",
"          ..+++++++++++++++++..         ",
"         .+++++++++++++++++++++.        ",
"        .++++++++@@@@@@@@+++++++.       ",
"       .+++++++@@@@@@@@@@@@++++++.      ",
"      .+++++++@@@@++++++@@@+++++++.     ",
"      .++++++@@@++++++++++++++++++.     ",
"     .++++++@@@++++++++++++++++++++.    ",
"     .++++++@@@++++++++++++++++++++.    ",
"     .++++++@@@++++++++++++++++++++.    ",
"    .+++++++@@@+++++++++++++++++++++.   ",
"    .+++++++@@@@++++++++++++++++++++.   ",
"    .+++++++@@@@@+++++++++++++++++++.   ",
"    .++++++++@@@@@@@@+++++++++++++++.   ",
"    .+++++++++@@@@@@@@@@@+++++++++++.   ",
"    .+++++++++++@@@@@@@@@@@+++++++++.   ",
"    .++++++++++++++@@@@@@@@@++++++++.   ",
"    .++++++++++++++++++@@@@@++++++++.   ",
"    .++++++++++++++++++++@@@@+++++++.   ",
"    .+++++++++++++++++++++@@@+++++++.   ",
"    .+++++++++++++++++++++@@@+++++++.   ",
"     .++++++++++++++++++++@@@++++++.    ",
"     .++++++++++++++++++++@@@++++++.    ",
"     .++++++++++++++++++++@@@++++++.    ",
"      .+++++@@+++++++++++@@@++++++.     ",
"      .+++++@@@@+++++++@@@@+++++++.     ",
"       .++++@@@@@@@@@@@@@@+++++++.      ",
"        .++++++@@@@@@@@@++++++++.       ",
"         .+++++++++++++++++++++.        ",
"          ..+++++++++++++++++..         ",
"            ...+++++++++++...           ",
"               ...........              ",
"                                        ",
"                                        ",
"                                        ",
"                                        "};
