/* XPM */
static const char * svn_main_window_icon[] = {
"32 32 4 1",
" 	c None",
".	c #000000",
"+	c #FFFFFF",
"@	c #809CC8",
"                                ",
"                                ",
"             .......            ",
"          ...+++++++...         ",
"        ..+++++++++++++..       ",
"       .+++++++++++++++++.      ",
"      .+++++++++++++++++++.     ",
"     .++++++++@@@@@@+++++++.    ",
"     .++++++@@@@@@@@@@+++++.    ",
"    .+++++++@@@+++++@@++++++.   ",
"    .++++++@@+++++++++++++++.   ",
"    .++++++@@+++++++++++++++.   ",
"   .+++++++@@++++++++++++++++.  ",
"   .+++++++@@@+++++++++++++++.  ",
"   .++++++++@@@@@@@++++++++++.  ",
"   .++++++++++@@@@@@@++++++++.  ",
"   .++++++++++++++@@@@+++++++.  ",
"   .++++++++++++++++@@@++++++.  ",
"   .+++++++++++++++++@@++++++.  ",
"    .++++++++++++++++@@+++++.   ",
"    .++++++++++++++++@@+++++.   ",
"    .++++++@@++++++@@@++++++.   ",
"     .+++++@@@@@@@@@@@+++++.    ",
"     .+++++++@@@@@@@+++++++.    ",
"      .+++++++++++++++++++.     ",
"       .+++++++++++++++++.      ",
"        ..+++++++++++++..       ",
"          ...+++++++...         ",
"             .......            ",
"                                ",
"                                ",
"                                "};
