/* XPM */
static const char * svn_repo_error_small[] = {
"15 15 3 1",
" 	c None",
".	c black",
"X	c red",
"               ",
"  ...........  ",
"  .XXXXXXXXX.  ",
"  .XXXXXXXXX.  ",
"   .XXXXXXX.   ",
"   .XXXXXXX.   ",
"    .XXXXX.    ",
"    .XXXXX.    ",
"     .XXX.     ",
"     .XXX.     ",
"      .X.      ",
"      .X.      ",
"       .       ",
"               ",
"               "};
