/* XPM */
static const char * systemg_xpm[] = {
"32 32 7 1",
" 	c None",
".	c #861782078617",
"X	c #FFFFFFFFFFFF",
"o	c #FFFFFFFF0000",
"O	c #C71BC30BC71B",
"+	c #000000000000",
"@	c #861782070000",
"                                ",
"                                ",
"                                ",
"    .........                   ",
"   .XXXXXXXXX.                  ",
"  .XoOoOoOoOoO.                 ",
" .XoOoOoOoOoOoO.                ",
".OOOOOOOOOOOOOOO..............+ ",
".XXXXXXXXXXXXXXXXXXXXXXXXXXXXX++",
".XoOoOoOoOoOoOoOoOoOoOoOoOoOoO@+",
".XOoOoOoOoOoOoOoOoOoOoOoOoOoOo@+",
".XoOoOoOoOoOoOoOoOoOoOoOoOoOoO@+",
".XOoOoOoOoOoOoOoOoOoOoOoOoOoOo@+",
".XoOoOoOoOoOoOoOoOoOoOoOoOoOoO@+",
".XOoOoOoOoOoO+++O+OoOoOoOoOoOo@+",
".XoOoOoOoOoO++oO++oOoOoOoOoOoO@+",
".XOoOoOoOoO++oOoO+OoOoOoOoOoOo@+",
".XoOoOoOoOo++OoOoOoOoOoOoOoOoO@+",
".XOoOoOoOoO++oOoOoOoOoOoOoOoOo@+",
".XoOoOoOoOo++Oo++++OoOoOoOoOoO@+",
".XOoOoOoOoO++oOo++OoOoOoOoOoOo@+",
".XoOoOoOoOoO++oO++oOoOoOoOoOoO@+",
".XOoOoOoOoOoO++++oOoOoOoOoOoOo@+",
".XoOoOoOoOoOoOoOoOoOoOoOoOoOoO@+",
".XOoOoOoOoOoOoOoOoOoOoOoOoOoOo@+",
".XoOoOoOoOoOoOoOoOoOoOoOoOoOoO@+",
".XOoOoOoOoOoOoOoOoOoOoOoOoOoOo@+",
".XoOoOoOoOoOoOoOoOoOoOoOoOoOoO@+",
".@@@@@@@@@@@@@@@@@@@@@@@@@@@@@@+",
" ++++++++++++++++++++++++++++++ ",
"                                ",
"                                "};
