/* XPM */
static const char * systemg_small_xpm[] = {
"16 16 20 1",
" 	c None",
".	c #434143",
"+	c #828082",
"@	c #F1F0B1",
"#	c #D2D093",
"$	c #747174",
"%	c #E3E1A3",
"&	c #D5D295",
"*	c #B6B2B6",
"=	c #C2C0C2",
"-	c #212000",
";	c #E3E163",
">	c #434100",
",	c #313031",
"'	c #717031",
")	c #A3A163",
"!	c #B1B031",
"~	c #3F3F00",
"{	c #000000",
"]	c #434121",
"                ",
"  ....          ",
" +@@@@#         ",
"$%&&&&&*....... ",
"=@@@@@@@@@@@@@@-",
"=;;;;;;;;;;;;;;>",
"=;;;;;;;;;;;;;;>",
"=;;;;;,',;;;;;;>",
"=;;;;'';);;;;;;>",
"=;;;;''!');;;;;>",
"=;;;;)~;{;;;;;;>",
"=;;;;;)'!;;;;;;>",
"=;;;;;;;;;;;;;;>",
"=;;;;;;;;;;;;;;>",
"]>>>>>>>>>>>>>>-",
"                "};
