/* XPM */
static const char * code_crusader_small_xpm[] = {
"16 16 12 1",
" 	c None",
".	c #515151",
"+	c #363636",
"@	c #A2A2A2",
"#	c #F4F4F4",
"$	c #4F4F4F",
"%	c #444444",
"&	c #5A5A5A",
"*	c #AEAEAE",
"=	c #606060",
"-	c #717171",
";	c #555555",
"                ",
"  .+        +.  ",
" .@#.      .#@. ",
" +#@#.    .#@#+ ",
"  .#@#.  .#@#.  ",
"   .#@#..#@#.   ",
"    .#@@#@#.    ",
"     .@#@#.     ",
"     .#@#@.     ",
"  $ .#@#@@#. $  ",
"  %&*@#..#@*&%  ",
"   =&*.  .*&=   ",
"  --=&    &=--  ",
" ;-- %$  $% --; ",
"  ;          ;  ",
"                "};
