#define envelopes_mask_width 17
#define envelopes_mask_height 14
static unsigned char envelopes_mask_bits[] = {
   0xff, 0x3f, 0xfe, 0xff, 0x3f, 0xfe, 0xff, 0xff, 0xfe, 0xff, 0xff, 0xfe,
   0xff, 0xff, 0xfe, 0xff, 0xff, 0xfe, 0xff, 0xff, 0xfe, 0xff, 0xff, 0xfe,
   0xff, 0xff, 0xfe, 0xff, 0xff, 0xfe, 0xff, 0xff, 0xfe, 0xfc, 0xff, 0xfe,
   0xfc, 0xff, 0xfe, 0x00, 0x00, 0xfe};
