/* XPM */
static const char * nps_svn_client_small[] = {
"15 15 4 1",
" 	c None",
".	c #000000",
"+	c #FFFFFF",
"@	c #809CC8",
"               ",
"    .......    ",
"   .+++++++.   ",
"  .+++@@@+++.  ",
" .+++@+++@+++. ",
" .+++@+++++++. ",
" .+++@+++++++. ",
" .++++@@@++++. ",
" .+++++++@+++. ",
" .+++++++@+++. ",
" .+++@+++@+++. ",
"  .+++@@@+++.  ",
"   .+++++++.   ",
"    .......    ",
"               "};
