/* XPM */
static char * gpm_about_icon[] = {
"40 40 6 1",
" 	c None",
".	c #666666",
"+	c #FFFFFF",
"@	c #F5DEB3",
"#	c #000000",
"$	c #7F7F7F",
"                                        ",
"                                        ",
"                                        ",
"                         .              ",
"                        .+.             ",
"                       .+++.            ",
"                      .+++++.           ",
"         .           .++++..+.          ",
"        .+.         .++++.@@.+.         ",
"       .+++.         .++####..          ",
"      .+++++.        $.+++..+.#         ",
"     .++++..+.        $.++.+++.         ",
"    .++++.@@.+.        $..+++++.        ",
"     .++####@.          .++++..+.       ",
"     $.+++.@@##        .++++.@@.+.      ",
"      $.+++..##         .++####@.       ",
"       $.+.$ ##     .   $.+++.@@##      ",
"        $.$        .+.   $.+++..##      ",
"         $        .+++.   $.+.$ ##      ",
"                 .+++++.   $.$          ",
"            .   .++++..+.   $           ",
"           .+. .++++.@@.+.              ",
"          .+++. .++####@.               ",
"         .+++++.$.+++.@@##              ",
"        .++++..+.$.+++..##              ",
"       .++++.@@.+.$.+.$ ##   .          ",
"        .++####@.++$.$.     .+.         ",
"        $.+++.@.++++$.+.   .+++.        ",
"         $.+++.++++.@@.+. .+++++.       ",
"          $.+.$.++####@. .++++..+.      ",
"           $.$ $.+++.@@##++++.@@.+.     ",
"            $   $.+++..##.++####@.      ",
"                 $.+.$ ##$.+++.@@##     ",
"                  $.$     $.+++..##     ",
"                   $       $.+.$ ##     ",
"                            $.$         ",
"                             $          ",
"                                        ",
"                                        ",
"                                        "};
