/* XPM */
static const char * gpm_main_window_icon[] = {
"24 28 6 1",
" 	c None",
".	c #666666",
"+	c #FFFFFF",
"@	c #F5DEB3",
"#	c #000000",
"$	c #7F7F7F",
"                        ",
"                        ",
"                        ",
"                        ",
"                        ",
"               .        ",
"              .+.       ",
"             .+++.      ",
"            .+++++.     ",
"        .  .++++..+.    ",
"       .+..++++.@@.+.   ",
"      .+++..++####@.    ",
"     .+++++$.+++.@@##   ",
"    .++++..+$.+++..##   ",
"   .++++.@@.+$.+.$ ##   ",
"    .++####@.+$.$       ",
"    $.+++.@.+++$+.      ",
"     $.+++.++++..+.     ",
"      $.+.++++.@@.+.    ",
"       $.$.++####@.     ",
"        $ $.+++.@@##    ",
"           $.+++..##    ",
"            $.+.$ ##    ",
"             $.$        ",
"              $         ",
"                        ",
"                        ",
"                        "};
