/* XPM */
static const char * gpm_pause[] = {
"16 16 5 1",
" 	c None",
".	c #000000000000",
"X	c #888888888888",
"o	c #FFFF00000000",
"O	c #666666666666",
"   ..........   ",
"   .XXXooXXX.   ",
"   .XXooooXX.   ",
"   .XXooooXX.   ",
"   .XXXooXXX.   ",
"   .XXXXXXXX.   ",
"   .XXXOOXXX.   ",
"   .XXOOOOXX.   ",
"   .XXOOOOXX.   ",
"   .XXXOOXXX.   ",
"   .XXXXXXXX.   ",
"   .XXXOOXXX.   ",
"   .XXOOOOXX.   ",
"   .XXOOOOXX.   ",
"   .XXXOOXXX.   ",
"   ..........   "};
