/* XPM */
static char * sc_about[] = {
"40 40 2 1",
" 	c None",
".	c #000000000000",
"                                        ",
"                                        ",
"                                        ",
"           .       .       .            ",
"           .       .       .            ",
"          . .     . .     . .           ",
"          . .     . .     . .           ",
"         .   .   .   .   .   .          ",
"         .   .   .   .   .   .          ",
"     ....     . .     . .     ....      ",
"              . .     . .               ",
"               .       .                ",
"               .       .                ",
"                                        ",
"                                        ",
"                                        ",
"                                        ",
"                                        ",
"                                        ",
"                                        ",
"                  .                     ",
"         .       .          ...         ",
"          .     .          .   .        ",
"       .   .   .           .   .        ",
"        .   . .            .   .        ",
"         .   .             .  ..        ",
"          .   .            .   .        ",
"           .   .            ... .       ",
"          . .   .                       ",
"         .   .   .                      ",
"        .     .                         ",
"       .       .                        ",
"      .                                 ",
"                                        ",
"                                        ",
"                                        ",
"                                        ",
"                                        ",
"                                        ",
"                                        "};
