/* XPM */
static const char * thx_base_conv_window[] = {
"30 30 2 1",
" 	c #CCCCCCCCCCCC",
".	c #000000000000",
"                              ",
"                              ",
"                              ",
"                              ",
"            ......            ",
"          ..      ..          ",
"         .          .         ",
"        .                     ",
"   ..      ...    .  .  .  .  ",
"  .  .     .     .. .. .. ..  ",
"  .  . . . .      .  .  .  .  ",
"  .  .  .  ...    .  .  .  .  ",
"  .  .  .  .      .  .  .  .  ",
"   ..  . . .      .  .  .  .  ",
"                              ",
"    .                    .    ",
"    .                    .    ",
"    .                    .    ",
"     .                  .     ",
"     .                  .     ",
"     .                  .     ",
"      .     .  ....    .      ",
"       .   ..  .      .       ",
"        .   .  ...   .        ",
"            .     .           ",
"            .     .           ",
"            .  ...            ",
"                              ",
"                              ",
"                              "};
