/* XPM */
static const char * thx_expr_window[] = {
"30 30 4 1",
" 	c #0000CCCCFFFF",
".	c #FFFF99990000",
"X	c #000000000000",
"o	c #000066660000",
"                              ",
"                              ",
"                              ",
"            ......            ",
"         ............         ",
"        ..............        ",
"       .............XX.XX     ",
"      .............XXXXXXX    ",
"     .............X...X.. X   ",
"    ......................    ",
"    ......................    ",
"   ........................   ",
"   ........................   ",
"   ........................   ",
"  ..........................  ",
"  .............X............  ",
"  ............XXX...........  ",
"  ............XXX...........  ",
"  .............X............  ",
"  ............XXX...........  ",
"  ...........X.X.X..........  ",
"   .........X..X..X........   ",
"   ............X...........   ",
"   ...........XXX..........   ",
"    ..........X.X.........    ",
"oooo.........X...X........oooo",
"oooooooooooooooooooooooooooooo",
"oooooooooooooooooooooooooooooo",
"oooooooooooooooooooooooooooooo",
"oooooooooooooooooooooooooooooo"};
