/* XPM */
static const char * thx_2D_plot_window[] = {
"30 30 3 1",
" 	c #FFFFFFFFFFFF",
".	c #000000000000",
"X	c #FFFF00000000",
"                              ",
"                              ",
"              .               ",
"             ...              ",
"            .....             ",
"              .               ",
"              .               ",
"              .               ",
"              .               ",
"              .      XXX      ",
"              .    XX   XX    ",
"              .   X       X   ",
"              .  X            ",
"              . X        .    ",
"              .X         ..   ",
"  ............X.............  ",
"             X.          ..   ",
"            X .          .    ",
"           X  .               ",
"  X       X   .               ",
"   XX   XX    .               ",
"     XXX      .               ",
"              .               ",
"              .               ",
"              .               ",
"              .               ",
"              .               ",
"              .               ",
"                              ",
"                              "};
