/* XPM */
static char * check1_xpm[] = {
"10 9 2 1",
" 	c None",
".	c #000000000000",
"          ",
" ...  ... ",
"  ..  ..  ",
"   ....   ",
"    ..    ",
"   ....   ",
"  ..  ..  ",
" ...  ... ",
"          "};
