/* XPM */
static char *envelope_front[] = {
/* width height num_colors chars_per_pixel */
"    17    14        5            1",
/* colors */
". c #ffffff",
"# c #c3c3c3",
"a c #828282",
"b c #0000ff",
"c c None",
/* pixels */
"ccccccccccccccccc",
"caaaaaaaaaaaaaacc",
"ca..........bbacc",
"ca.aa#aa....bba#c",
"ca.a#a#.....bba#c",
"ca.a#a#a......a#c",
"ca............a#c",
"ca....a#aa#a..a#c",
"ca....aa#aa...a#c",
"ca....aaa#aa..a#c",
"ca............a#c",
"caaaaaaaaaaaaaa#c",
"ccc#############c",
"ccccccccccccccccc"
};
