/* XPM */
static char * jxcornerbox_xpm[] = {
"40 20 3 1",
" 	c #808080808080",
".	c #E6E6E6E6E6E6",
"X	c #CCCCCCCCCCCC",
"                                       .",
"                                      ..",
"  XXXXXXXXXXXXXXXXXXXXXXXXXXXXXXXXXXXX..",
"  XXXXXXXXXXXXXXXXXXXXXXXXXXXXXXXXXXXX..",
"  XXXXXXXXXXXXXXXXXXXXXXXXXXXXXXXXXXXX..",
"  XXXXXXXXXXXXXXXXXXXXXXXXXXXXXXXXXXX..X",
"  XXXXXXXXXXXXXXXXXXXXXXXXXXXXXXXXXX..XX",
"  XXXXXXXXXXXXXXXXXXXXXXXXXXXXXXXXX.. XX",
"  XXXXXXXXXXXXXXXXXXXXXXXXXXXXXXXX..  XX",
"  XXXXXXXXXXXXXXXXXXXXXXXXXXXXXXX..  .XX",
"  XXXXXXXXXXXXXXXXXXXXXXXXXXXXXX..  ..XX",
"  XXXXXXXXXXXXXXXXXXXXXXXXXXXXX..  .. XX",
"  XXXXXXXXXXXXXXXXXXXXXXXXXXXX..  ..  XX",
"  XXXXXXXXXXXXXXXXXXXXXXXXXXX..  ..  .XX",
"  XXXXXXXXXXXXXXXXXXXXXXXXXX..  ..  ..XX",
"  XXXXXXXXXXXXXXXXXXXXXXXXX..  ..  .. XX",
"  XXXXXXXXXXXXXXXXXXXXXXXX..  ..  ..  XX",
"  XXXXXXXXXXXXXXXXXXXXXXX..  ..  ..  XXX",
" ..........................XXXXXXXXXXXXX",
"..........................XXXXXXXXXXXXXX"};
