/* XPM */
static char * nomail1_xpm[] = {
"30 30 6 1",
" 	c None",
".	c #8A8A88888A8A",
"X	c #FFFFFFFF0000",
"o	c #636365656363",
"O	c #BDBDBDBD0000",
"+	c #9C9C9A9A9C9C",
"                              ",
"                              ",
"                              ",
"                              ",
"                              ",
"                              ",
"                  ...         ",
"              .....XX.        ",
"           .....XXXXXX.       ",
"         oooo.XXXXXXXX.       ",
"        oOOOOo.XXXXXXX.       ",
"       oOOOOOOoXXXXXXX.       ",
"       oOOoOOOoXXXXXXX.       ",
"       oOOoOoOOoXXXXXX.       ",
"       oOO+ooOOoXXXXXX.       ",
"       oOOOOOOOoXXXXXX.       ",
"       oOOOOOOOoXXXXX.        ",
"       oOOOOOOOoXXXXo         ",
"       oOOOOOOOoXXXo          ",
"       ooOOOOOOoXXo           ",
"         ooOOOOoXXo           ",
"           oooOoXo            ",
"              ooo             ",
"               o              ",
"                              ",
"                              ",
"                              ",
"                              ",
"                              ",
"                              "};
