/* XPM */
static char * reply_all_xpm[] = {
"15 15 3 1",
" 	c None",
".	c #52525151FFFF",
"X	c #A7A7CBCBFFFF",
"     .         ",
"    ..         ",
"   ......X     ",
"   ........    ",
"    ..   ...   ",
"     .    ...  ",
"           ..  ",
"               ",
"           ..  ",
"     .    ...  ",
"    ..   ...   ",
"   ........    ",
"   ......X     ",
"    ..         ",
"     .         "};
