/* XPM */
static char * signature_xpm[] = {
"10 13 3 1",
" 	c None",
".	c #B5B5B2B2B5B5",
"X	c #000000000000",
"          ",
"          ",
"  .XXX.X  ",
"  X. .XX  ",
"  X.   X  ",
"  .XX.    ",
"   .XXX   ",
"     .XX  ",
"  X.  .X  ",
"  XX .XX  ",
"  X.XXX.  ",
"          ",
"          "};
