/* XPM */
static const char * jcc_sym_c_sharp_event[] = {
"15 15 2 1",
" 	c None",
"*	c #000000000000",
"               ",
"               ",
"               ",
"     ********* ",
"     *       * ",
"     *  *    * ",
"     *   *   * ",
" **********  * ",
"     *   *   * ",
"     *  *    * ",
"     *       * ",
"     ********* ",
"               ",
"               ",
"               "};
