/* XPM */
static const char * jcc_sym_variable[] = {
"10 9 2 1",
" 	c None",
"*	c #000000000000",
"          ",
" **     * ",
"  *    *  ",
"  *    *  ",
"  *   *   ",
" *   *    ",
" * **     ",
" **       ",
"          "};
