/* XPM */
static char * jcc_qt_slot[] = {
"15 11 2 1",
" 	c None",
"*	c #000000000000",
"               ",
"             * ",
"      **     * ",
"       **   ** ",
"        **  ** ",
" ********** ** ",
"        **  ** ",
"       **   ** ",
"      **     * ",
"             * ",
"               "};
