/* XPM */
static const char * jcc_project_window[] = {
"30 30 4 1",
" 	c #CCCCCCCCCCCC",
".	c #000000000000",
"X	c #F7DEF7DEF7DE",
"o	c #666666666666",
"                              ",
"                              ",
"                              ",
"   ....                ....   ",
"   ..XX.              .XX..   ",
"   .X.XX.            .XX.X.   ",
"   .XX.XX.          .XX.XX.   ",
"    .XX.XX.        .XX.XX.    ",
"     .XX.XX.      .XX.XX.     ",
"      .XX.XX.    .XX.XX.      ",
"       .XX.XX.  .XX.XX.       ",
"        .XX.XX..XX.XX.        ",
"         .XX.X.XX.XX.         ",
"          .XX.XX.XX.          ",
"           ..XX.XX.           ",
"           .XX.XX..           ",
"    .     .XX.XX.XX.     .    ",
"   .o.   .XX.XX.X.XX.   .o.   ",
"  .ooo. .XX.XX..XX.XX. .ooo.  ",
"   .ooo.XX.XX.  .XX.XX.ooo.   ",
"    .ooo..XX.    .XX..ooo.    ",
"     .ooo.X.      .X.ooo.     ",
"    . .ooo.        .ooo. .    ",
"   . . .ooo.      .ooo. . .   ",
"  . . . .ooo.    .ooo. . . .  ",
"   . . . .ooo.  .ooo. . . .   ",
"    . .   .o.    .o.   . .    ",
"     .     .      .     .     ",
"                              ",
"                              "};
