/* XPM */
static const char * jcc_tab_inserts_spaces[] = {
"14 2 2 1",
" 	c None",
"X	c black",
"XX  XX  XX  XX",
"XX  XX  XX  XX"};
