/* XPM */
static const char * jcc_sym_c_macro[] = {
"10 10 2 1",
" 	c None",
"*	c #000000000000",
"          ",
"   *  *   ",
"   *  *   ",
" ******** ",
"   *  *   ",
"   *  *   ",
" ******** ",
"   *  *   ",
"   *  *   ",
"          "};
