/* XPM */
static const char * jcc_unix_format[] = {
"20 18 6 1",
" 	c None",
"X	c black",
"a	c green",
"*	c #999999999999",
"+	c #CCCCCCCCCCCC",
".	c white",
"                    ",
"    XXXXXXXXXXXX    ",
"   XX**********XX   ",
"   X*..........*X   ",
"   X*..........*X   ",
"   X*..........*X   ",
"   X*..........*X   ",
"   X*..........*X   ",
"   X*..........*X   ",
"   XX**********XX   ",
"    XXXXXXXXXXXX    ",
"        XXXX        ",
"      XXXXXXXX      ",
"  XXXXXXXXXXXXXXXX  ",
" X+aa+++++++++++++X ",
" X++++++++++++++++X ",
" XXXXXXXXXXXXXXXXXX ",
"                    "};
