/* XPM */
static const char * jcc_qt_signal[] = {
"15 11 2 1",
" 	c None",
"*	c #000000000000",
"               ",
" *             ",
" *       **    ",
" **       **   ",
" **        **  ",
" ************* ",
" **        **  ",
" **       **   ",
" *       **    ",
" *             ",
"               "};
