/* XPM */
static const char * jcc_sym_c_enum[] = {
"12 11 2 1",
" 	c None",
"*	c #000000000000",
"            ",
"            ",
" ********** ",
"            ",
"            ",
" ********** ",
"            ",
"            ",
" ********** ",
"            ",
"            "};
