/* XPM */
static const char * jcc_about_4[] = {
"40 40 5 1",
" 	c #000000000000",
".	c None",
"X	c #FFFFFFFFFFFF",
"o	c #F4F4F4F4F4F4",
"O	c #666666666666",
"       .....................X....       ",
"  ooooo ....................X... ooooo  ",
" o ooooo ..............X....X.. oXooo o ",
" oo ooooo ..............X...X. oXooo oo ",
" ooo ooooo ..............X..X oXooo ooo ",
" oooo ooooo ................ ooooo oooo ",
" ooooo ooooo .............. ooooo ooooo ",
". ooooo ooooo .......XXXXX ooooXXXXXoo .",
".. ooooo ooooo .......... ooooo ooooo ..",
"... ooooo ooooo ........ ooooo ooooo ...",
".... ooooo ooooo ...... oXooX oXooo ....",
"..... ooooo ooooo .... oXoooXoooXo .....",
"...... ooooo ooooo .. oXooo XooooX......",
"....... ooooo ooooo  ooooo oXooo .......",
"........ ooooo oooo ooooo ooXoo ........",
"......... ooooo oo ooooo ooooo .........",
".......... ooooo  ooooo ooooo ..........",
"........... oooo ooooo ooooo ...........",
"............ oo ooooo ooooo ............",
".............  ooooo ooooo .............",
"............. ooooo ooooo  .............",
"............ ooooo ooooo oo ............",
"... ....... ooooo ooooo oooo ....... ...",
".. O ..... ooooo ooooo  ooooo ..... O ..",
". OOO ... ooooo ooooo oo ooooo ... OOO .",
" OOOOO . ooooo ooooo oooo ooooo . OOOOO ",
". OOOOO ooooo ooooo  ooooo ooooo OOOOO .",
".. OOOOO ooo ooooo .. ooooo ooo OOOOO ..",
"... OOOOO o ooooo .... ooooo o OOOOO ...",
".... OOOOO ooooo ...... ooooo OOOOO ....",
"..... OOOOO ooo ........ ooo OOOOO .....",
".... X OOOOO o .......... o OOOOO X ....",
"... X X OOOOO ............ OOOOO X X ...",
".. X X X OOOOO .......... OOOOO X X X ..",
". X X X X OOOOO ........ OOOOO X X X X .",
" X X X X . OOOOO ...... OOOOO . X X X X ",
"X X X X ... OOOOO .... OOOOO ... X X X X",
" X X X ..... OOO ...... OOO ..... X X X ",
". X X ....... O ........ O ....... X X .",
".. X ......... .......... ......... X .."};
