/* XPM */
static const char * jcc_balance_braces[] = {
"15 16 3 1",
" 	c None",
"X	c black",
"+	c #808080",
"               ",
"   +X     X+   ",
"  +X       X+  ",
"  X         X  ",
"  X         X  ",
"  X         X  ",
"  X         X  ",
" X           X ",
" X           X ",
"  X         X  ",
"  X         X  ",
"  X         X  ",
"  X         X  ",
"  +X       X+  ",
"   +X     X+   ",
"               "};
