/* XPM */
static const char * jcc_file_save_copy_as[] = {
"17 14 7 1",
"  c None",
"X c black",
"- c #E66600000000",
". c #FFFF99990000",
"+ c #999966660000",
"* c #666666666666",
"^ c #999999999999",
"                 ",
"  XXXX     XXXX  ",
" X...XXXXXXX...X ",
"  X..X*^^^^X.-X  ",
"  X...X*^^X..-X  ",
"  X...X*^^X..-X  ",
" X....X*^^X...-X ",
" X....X*^^X...-X ",
" X....X*^^X...-X ",
" X.+++X*^^X+++-X ",
" X....X*^^X...-X ",
"  X...XXXXX---X  ",
"   XXXX   XXXX   ",
"                 "};
