/* XPM */
static const char * jcc_file_print_with_styles[] = {
"16 14 7 1",
"  c None",
"# c black",
"e c white",
"a c #00ffff",
"b c #808080",
"c c #ff0000",
"d c #c0c0c0",
"   ##########   ",
"   #aaaaaaaa#   ",
"   #a#b#aaaa#   ",
"   #aaaaaaaa#   ",
"   #a#b#b#ba#   ",
"   #aaaaaaaa#   ",
"################",
"#eeeeeeeeeeeeee#",
"#eccddddddddddd#",
"#eddddddddddddd#",
"#eddddddddddddd#",
"################",
" #bbbbbbbbbbbb# ",
" ############## "};
