/* XPM */
static const char * jcc_active_project_file[] = {
"15 17 8 1",
" 	c white",
".	c gray40",
"X	c white",
"O	c gray50",
"-	c gray50",
"+	c red",
"*	c magenta",
"@	c None",
"@             @",
"               ",
"  ........     ",
"  .XXXXXX..    ",
"  .X+++XX.X.   ",
"  .X+++XX...O  ",
"  .X+++XXXX.O  ",
"  .XX-X*XXX.O  ",
"  .XX-XX*XX.O  ",
"  .X---X***.O  ",
"  .X---X***.O  ",
"  .X---X***.O  ",
"  .XXXXXXXX.O  ",
"  ..........O  ",
"   OOOOOOOOOO  ",
"               ",
"@             @"};
