/* XPM */
static const char * jcc_c_tree_window[] = {
"30 30 3 1",
" 	c #CCCCCCCCCCCC",
".	c #000000000000",
"X	c #FFFFFFFFFFFF",
"                              ",
"                              ",
"                              ",
"            .....     .....   ",
"         ....XXX.......XXX.   ",
"         .  .....     .....   ",
"         .                    ",
"  .....  .  .....             ",
"  .XXX.......XXX.             ",
"  .....  .  .....             ",
"         .                    ",
"         .            .....   ",
"         .         ....XXX.   ",
"         .         .  .....   ",
"         .         .          ",
"         .  .....  .  .....   ",
"         ....XXX.......XXX.   ",
"            .....  .  .....   ",
"                   .          ",
"                   .  .....   ",
"    ....           ....XXX.   ",
"   ..   .          .  .....   ",
"   .      .   .    .          ",
"   .     ... ...   .  .....   ",
"   .      .   .    ....XXX.   ",
"   ..   .             .....   ",
"    ....                      ",
"                              ",
"                              ",
"                              "};
