/* XPM */
static const char * jcc_sym_python_class[] = {
"15 15 2 1",
" 	c None",
"*	c #000000000000",
"               ",
"   *********   ",
"  *         *  ",
" *  ******   * ",
" *  *    **  * ",
" *  *     *  * ",
" *  *    **  * ",
" *  ******   * ",
" *  *        * ",
" *  *        * ",
" *  *        * ",
" *  *        * ",
"  *         *  ",
"   *********   ",
"               "};
