/* XPM */
static const char * jcc_sym_c_sharp_namespace[] = {
"12 10 2 1",
" 	c None",
"*	c #000000000000",
"            ",
"            ",
"            ",
"            ",
"            ",
"            ",
"     **     ",
"    ****    ",
"     **     ",
"            "};
