/* XPM */
static const char * jcc_compare_vcs[] = {
"16 19 8 1",
" 	c None",
".	c #CCCCCCCCCCCC",
"X	c #000000000000",
"o	c #800080008000",
"O	c #FFFFFFFFFFFF",
"+	c #333333333333",
"@	c #000000008000",
",	c white",
"                ",
"        XXXXXXX ",
"        X.....X ",
"        X.....X ",
"        X...X.X ",
"        X.....X ",
"    .XXX+.....X ",
"   .Xo  X+XXXXX ",
"   XoOO  +   XX ",
"   X O   X      ",
" XXX   OoX      ",
" X,.X  oX++     ",
" X,,.oXX+ ++    ",
" X,,,,,X + +    ",
" X,,,,,X  ++    ",
" X,,,,,X        ",
" X,,,,,X        ",
" XXXXXXX        ",
"                "};
