/* XPM */
static const char * jcc_plain_file_writable_small[] = {
"21 15 6 1",
" 	c None",
".	c gray40",
"X	c white",
"O	c gray50",
"-	c gray50",
"*	c red",
"                     ",
"        ........     ",
"      **.XXXXXX..    ",
"     ** .XXXXXX.X.   ",
"    **  .XXXXXX...O  ",
"** **   .XXXXXXXX.O  ",
" ***    .X----XXX.O  ",
"  *     .XXXXXXXX.O  ",
"        .X---XXXX.O  ",
"        .XXXXXXXX.O  ",
"        .X-----XX.O  ",
"        .XXXXXXXX.O  ",
"        ..........O  ",
"         OOOOOOOOOO  ",
"                     "};
