/* XPM */
static const char * jcc_about_3[] = {
"40 40 6 1",
" 	c #000000000000",
".	c None",
"X	c #FFFFFFFF0000",
"o	c #F4F4F4F4F4F4",
"O	c #FFFFFFFFFFFF",
"+	c #666666666666",
"       .....................X....       ",
"  ooooo ....................X... ooooo  ",
" o ooooo ..............X....X.. oXooo o ",
" oo ooooo ..............X...X. oXooo oo ",
" ooo ooooo ..............X..X oXooo ooo ",
" oooo ooooo ..............O.OoOooo oooo ",
" ooooo ooooo ..............OOOooo ooooo ",
". ooooo ooooo .......XXXXXOOOOOXXXXXoo .",
".. ooooo ooooo .......... oOOOo ooooo ..",
"... ooooo ooooo ........ oOoOoOooooo ...",
".... ooooo ooooo ...... oXooX oXooo ....",
"..... ooooo ooooo .... oXoooXoooXo .....",
"...... ooooo ooooo .. oXooo XooooX......",
"....... ooooo ooooo  ooooo oXooo .......",
"........ ooooo oooo ooooo ooXoo ........",
"......... ooooo oo ooooo ooooo .........",
".......... ooooo  ooooo ooooo ..........",
"........... oooo ooooo ooooo ...........",
"............ oo ooooo ooooo ............",
".............  ooooo ooooo .............",
"............. ooooo ooooo  .............",
"............ ooooo ooooo oo ............",
"... ....... ooooo ooooo oooo ....... ...",
".. + ..... ooooo ooooo  ooooo ..... + ..",
". +++ ... ooooo ooooo oo ooooo ... +++ .",
" +++++ . ooooo ooooo oooo ooooo . +++++ ",
". +++++ ooooo ooooo  ooooo ooooo +++++ .",
".. +++++ ooo ooooo .. ooooo ooo +++++ ..",
"... +++++ o ooooo .... ooooo o +++++ ...",
".... +++++ ooooo ...... ooooo +++++ ....",
"..... +++++ ooo ........ ooo +++++ .....",
".... O +++++ o .......... o +++++ O ....",
"... O O +++++ ............ +++++ O O ...",
".. O O O +++++ .......... +++++ O O O ..",
". O O O O +++++ ........ +++++ O O O O .",
" O O O O . +++++ ...... +++++ . O O O O ",
"O O O O ... +++++ .... +++++ ... O O O O",
" O O O ..... +++ ...... +++ ..... O O O ",
". O O ....... + ........ + ....... O O .",
".. O ......... .......... ......... O .."};
