/* XPM */
static const char * jcc_sym_member[] = {
"12 13 2 1",
" 	c None",
"*	c black",
"            ",
"            ",
" ********** ",
"            ",
"            ",
" ********** ",
" ********** ",
" ********** ",
"            ",
"            ",
" ********** ",
"            ",
"            "};
