/* XPM */
static const char * jcc_mac_format[] = {
"20 18 9 1",
" 	c None",
"X	c black",
",	c white",
"@	c green",
"#	c red",
".	c #CCCCCCCCCCCC",
"*	c #999999999999",
"+	c #666666666666",
"a	c #CCCCCCCCFFFF",
"                    ",
"     XXXXXXXXXXX    ",
"    X...........X   ",
"    X.+++++++++.X   ",
"    X.+aaaaaaa,.X   ",
"    X.+aaaaaaa,.X   ",
"    X.+aaaaaaa,.X   ",
"    X.+aaaaaaa,.X   ",
"    X.+aaaaaaa,.X   ",
"    X.+aaaaaaa,.X   ",
"    X.*,,,,,,,,.X   ",
"    X...........X   ",
"    X.@.........X   ",
"    X.#....XXXX.X   ",
"    X...........X   ",
"     XXXXXXXXXXX    ",
"     XXXXXXXXXXX    ",
"                    "};
