#define envelopes_width 17
#define envelopes_height 14
static unsigned char envelopes_bits[] = {
   0xff, 0x3f, 0xfe, 0x01, 0x38, 0xfe, 0xfd, 0xff, 0xfe, 0x05, 0xe0, 0xfe,
   0xf5, 0xe0, 0xfe, 0x05, 0xe0, 0xfe, 0xf5, 0x81, 0xfe, 0x05, 0x80, 0xfe,
   0x85, 0x87, 0xfe, 0x05, 0x80, 0xfe, 0x87, 0x9f, 0xfe, 0x04, 0x80, 0xfe,
   0xfc, 0xff, 0xfe, 0x00, 0x00, 0xfe};
