/* XPM */
static char * tall_folder_xpm[] = {
"17 17 5 1",
" 	c None",
".	c gray40",
"X	c wheat",
"-	c gray60",
"O	c gray50",
"                 ",
"                 ",
"   .....         ",
"  .XXXXX.        ",
" .XXXXXXX......  ",
" .-------XXXXX.O ",
" .XXXXXXXXXXXX.O ",
" .XXXXXXXXXXXX.O ",
" .XXXXXXXXXXXX.O ",
" .XXXXXXXXXXXX.O ",
" .XXXXXXXXXXXX.O ",
" .XXXXXXXXXXXX.O ",
" .XXXXXXXXXXXX.O ",
" ..............O ",
"  OOOOOOOOOOOOOO ",
"                 ",
"                 "};
