/* XPM */
static char * locked_envelopes[] = {
"17 14 8 1",
" 	c None",
"x	c #861782078617",
".	c #000000000000",
"X	c #CF3C7DF728A2",
"O	c #FFFFFFFFFFFF",
"+	c #00000000FFFF",
"@	c #C71BC30BC71B",
"#	c #FFFFAAAA5965",
"                 ",
"xxxxxx.XX.xxxx   ",
"xOOOOO.XX.O++x   ",
"xOxxxx.XX.xxxxxx ",
"xOxOOO.XX.OOO++x ",
"xOxOxx.XX.xxO++x@",
"xOxOx######xO++x@",
"xOxOx#.XX.#xOOOx@",
"xOxOx#.XX.#xOOOx@",
"xOxOx#.XX.#xxOOx@",
"xOxOx######xOOOx@",
"xxxOxx.XX.xxxOOx@",
"  xOOO.XX.OOOOOx@",
"  xxxx.XX.xxxxxx@",
"    @@.XX.@@@@@@@",
"                 ",
"                 "};
