/* XPM */
static char * selectedfolderIcon_xpm[] = {
"17 17 4 1",
" 	c None",
".	c #618565956185",
"X	c #7DF771C65D75",
"o	c #000000000000",
"                 ",
"                 ",
"   .....         ",
"  .XXXXX.        ",
" .XXXXXXX......  ",
" ..............o ",
" .XXXXXXXXXXXX.o ",
" .XXXXXXXXXXXX.o ",
" .XXXXXXXXXXXX.o ",
" .XXXXXXXXXXXX.o ",
" .XXXXXXXXXXXX.o ",
" .XXXXXXXXXXXX.o ",
" .XXXXXXXXXXXX.o ",
" ..............o ",
"  oooooooooooooo ",
"                 ",
"                 "};
