/* XPM */
static char * <Binary>[] = {
"32 32 3 1",
" 	c None",
".	c #000000000000",
"X	c #FFFFFFFFFFFF",
"                                ",
"                                ",
"                                ",
"                                ",
"      ...............           ",
"      .XXXXXXXXXXXXX.           ",
"      .XXXXXXXXXXXXX.           ",
"      .XXXXXXXXXXXXX.           ",
"      .XXXXXXXXXXXXX.           ",
"      .XXXXXXXXXXXXX.           ",
"      .XXXXXXXXXXXXX.           ",
"      .XXXXXXXXXXXXX.           ",
"      .XXXXXXXXXXXXX.           ",
"      .XXXXXX.............      ",
"      .XXXXXX.XXXXXX.    .      ",
"      .XXXXXX.XXXXXX.    .      ",
"      .XXXXXX.XXXXXX.    .      ",
"      .XXXXXX.XXXXXX.    .      ",
"      .XXXXXX.XXXXXX.    .      ",
"      .XXXXXX.XXXXXX.    .      ",
"      ...............    .      ",
"             .           .      ",
"             .           .      ",
"             .           .      ",
"             .           .      ",
"             .           .      ",
"             .............      ",
"                                ",
"                                ",
"                                ",
"                                ",
"                                "};
