/* XPM */
static const char *align_left[] = {
/* columns rows colors chars-per-pixel */
"16 16 2 1 ",
"  c None",
". c black",
/* pixels */
"                ",
" ..             ",
" .. ......      ",
" .. ......      ",
" ..             ",
" ..             ",
" ..             ",
" .. ........... ",
" .. ........... ",
" ..             ",
" ..             ",
" ..             ",
" .. .........   ",
" .. .........   ",
" ..             ",
"                "
};
