/* XPM */
static const char *distr_horiz[] = {
/* columns rows colors chars-per-pixel */
"16 16 2 1 ",
"  c None",
". c black",
/* pixels */
"                ",
"                ",
"       ..       ",
"       ..       ",
"       ..   ..  ",
"  ..   ..   ..  ",
"  ..   ..   ..  ",
"  ..   ..   ..  ",
"  ..   ..   ..  ",
"  ..   ..   ..  ",
"  ..   ..   ..  ",
"       ..   ..  ",
"       ..       ",
"       ..       ",
"                ",
"                "
};
