/* XPM */
static const char * code_mill_small_xpm[] = {
"16 16 3 1",
" 	c None",
".	c #000000",
"X	c #FFFFFF",
"                ",
"  ........      ",
"  .XXXXXX.      ",
"  .XXXXXX.      ",
"  .XXXXXX.      ",
"  .XXX........  ",
"  .XXX.XX.   .  ",
"  .XXX.XX.   .  ",
"  ........   .  ",
"      .      .  ",
"      .      .  ",
"      .      .  ",
"      ........  ",
"                ",
"                ",
"                "};
