#define jx_drag_all_horiz_line_cursor_mask_width 17
#define jx_drag_all_horiz_line_cursor_mask_height 17
static char jx_drag_all_horiz_line_cursor_mask_bits[] = {
   0x80, 0x03, 0x00, 0xc0, 0x07, 0x00, 0xe0, 0x0f, 0x00, 0xe0, 0x0f, 0x00,
   0xff, 0xff, 0x01, 0xff, 0xff, 0x01, 0xff, 0xff, 0x01, 0xff, 0xff, 0x01,
   0xff, 0xff, 0x01, 0xff, 0xff, 0x01, 0xff, 0xff, 0x01, 0xff, 0xff, 0x01,
   0xff, 0xff, 0x01, 0xe0, 0x0f, 0x00, 0xe0, 0x0f, 0x00, 0xc0, 0x07, 0x00,
   0x80, 0x03, 0x00};
