#define jx_drag_mod_object_cursor_mask_width 29
#define jx_drag_mod_object_cursor_mask_height 25
static char jx_drag_mod_object_cursor_mask_bits[] = {
   0xff, 0xff, 0x1f, 0x00, 0xff, 0xff, 0xff, 0x1f, 0xff, 0xff, 0xff, 0x1f,
   0x07, 0x00, 0xfc, 0x1f, 0x07, 0x00, 0xfc, 0x1f, 0x07, 0x00, 0xfc, 0x1f,
   0x07, 0x00, 0xfc, 0x1f, 0x07, 0x00, 0xfc, 0x1f, 0x07, 0x00, 0xfc, 0x1f,
   0x07, 0x06, 0xfc, 0x1f, 0x07, 0x0e, 0xfc, 0x1f, 0x07, 0x1e, 0x1c, 0x00,
   0x07, 0x3e, 0x1c, 0x00, 0x07, 0x7e, 0x1c, 0x00, 0x07, 0xfe, 0x1c, 0x00,
   0x07, 0xfe, 0x1d, 0x00, 0x07, 0xfe, 0x1f, 0x00, 0x07, 0xfe, 0x1f, 0x00,
   0xff, 0xff, 0x1f, 0x00, 0xff, 0xff, 0x1e, 0x00, 0xff, 0xef, 0x1f, 0x00,
   0x00, 0xe6, 0x01, 0x00, 0x00, 0xc0, 0x03, 0x00, 0x00, 0xc0, 0x03, 0x00,
   0x00, 0x80, 0x01, 0x00};
