#define jx_drag_mod_file_cursor_mask_width 21
#define jx_drag_mod_file_cursor_mask_height 22
static char jx_drag_mod_file_cursor_mask_bits[] = {
   0xff, 0xe1, 0x1f, 0xff, 0xe3, 0x1f, 0xff, 0xe7, 0x1f, 0xff, 0xef, 0x1f,
   0xff, 0xff, 0x1f, 0xff, 0xff, 0x1f, 0xff, 0xff, 0x1f, 0xff, 0xff, 0x1f,
   0xff, 0xff, 0x1f, 0xff, 0xff, 0x1f, 0xff, 0x1f, 0x00, 0xff, 0x1f, 0x00,
   0xff, 0x3f, 0x00, 0xff, 0x7f, 0x00, 0xff, 0x7f, 0x00, 0xe0, 0x7f, 0x00,
   0xe0, 0x0f, 0x00, 0xe0, 0x1e, 0x00, 0x60, 0x1e, 0x00, 0x00, 0x3c, 0x00,
   0x00, 0x3c, 0x00, 0x00, 0x18, 0x00 };
