#define jx_drag_mod_directory_cursor_mask_width 24
#define jx_drag_mod_directory_cursor_mask_height 22
static char jx_drag_mod_directory_cursor_mask_bits[] = {
   0xf8, 0x80, 0xff, 0xfc, 0x81, 0xff, 0xfe, 0xbf, 0xff, 0xff, 0xff, 0xff,
   0xff, 0xff, 0xff, 0xff, 0xff, 0xff, 0xff, 0xff, 0xff, 0xff, 0xff, 0xff,
   0xff, 0xff, 0xff, 0xff, 0xff, 0xff, 0xff, 0xff, 0x00, 0xff, 0xff, 0x00,
   0xff, 0xff, 0x00, 0xff, 0xff, 0x00, 0xe0, 0x7f, 0x00, 0xe0, 0x7f, 0x00,
   0xe0, 0x0f, 0x00, 0xe0, 0x1e, 0x00, 0x60, 0x1e, 0x00, 0x00, 0x3c, 0x00,
   0x00, 0x3c, 0x00, 0x00, 0x18, 0x00 };
