#define jx_hand_cursor_mask_width 16
#define jx_hand_cursor_mask_height 16
static char jx_hand_cursor_mask_bits[] = {
   0x80, 0x01, 0xF0, 0x1B, 0xF8, 0x3F, 0xFA, 0x3F,
   0xFF, 0x1F, 0xFF, 0x1F, 0xFF, 0x6F, 0xFF, 0xFF,
   0xFE, 0xFF, 0xFE, 0x7F, 0xFE, 0x3F, 0xFC, 0x3F,
   0xFC, 0x1F, 0xF8, 0x0F, 0xF8, 0x07, 0xF8, 0x07};
