/* XPM */
static char * jx_memory_debugger_small[] = {
"15 15 3 1",
" 	c None",
".	c #000000",
"+	c #FFFFFF",
"               ",
" ......        ",
" .++++. ...... ",
" .++++. .++++. ",
" .++++. .++++. ",
" .++++. .++++. ",
" ...... .++++. ",
"        ...... ",
"  .......      ",
"  .+++++.      ",
"  .+++++.      ",
"  .+++++.      ",
"  .+++++.      ",
"  .+++++.      ",
"  .......      "};
