/* XPM */
static char * binary_file_xpm[] = {
"15 15 4 1",
" 	c None",
".	c #618565956185",
"X	c #FFFFFFFFFFFF",
"o	c #79E77DF779E7",
"               ",
"  ........     ",
"  .XXXXXX..    ",
"  .XooXoX.X.   ",
"  .XooXoX...o  ",
"  .XXXXXXXX.o  ",
"  .XooXooXX.o  ",
"  .XooXooXX.o  ",
"  .XXXXXXXX.o  ",
"  .XooXooXX.o  ",
"  .XooXooXX.o  ",
"  .XXXXXXXX.o  ",
"  ..........o  ",
"   oooooooooo  ",
"               "};
