/* XPM */
static char * check_mail[] = {
"17 15 5 1",
" 	c None",
".	c #00000000FFFF",
"X	c #828282828282",
"o	c #FFFFFFFFFFFF",
"O	c #C3C3C3C3C3C3",
"      ...        ",
"      ...        ",
" XXXXX...XXXXXX  ",
" Xoooo...ooo..X  ",
" Xoo.......o..XO ",
" XoXo.....oo..XO ",
" XoXOo...oooooXO ",
" Xooooo.ooooooXO ",
" XooooXoXXOXooXO ",
" XooooXXOXXoooXO ",
" XooooXXXOXXooXO ",
" XooooooooooooXO ",
" XXXXXXXXXXXXXXO ",
"   OOOOOOOOOOOOO ",
"                 "};
