/* XPM */
static char * cross_out_xpm[] = {
"14 15 4 1",
" 	c None",
".	c #000000000000",
"X	c #B5B5B2B2B5B5",
"o	c #9C9C9A9A9C9C",
"              ",
"              ",
"  ..       .  ",
"   X.     ..  ",
"    X.   ...  ",
"     X. ..o   ",
"      ...     ",
"      ...     ",
"     .. ..    ",
"    .X   ..   ",
"   .X    X..  ",
"  X.      ..  ",
"  .           ",
"              ",
"              "};
