/* XPM */
static char * havemail_xpm[] = {
"30 23 4 1",
" 	c None",
".	c #000000000000",
"X	c #FFFFFFFFFFFF",
"o	c gray90",
"                              ",
"                              ",
"                              ",
"                              ",
"                              ",
"        ..............        ",
"        .XXXXXXXXXXXX.        ",
"      ..................      ",
"      .XXXXXXXXXXXXXXXX.      ",
"    ......................    ",
"    .XXXXXXXXXXXXXXXXXXXX.    ",
"    .X...XXXXXXXXXXXXX..X.    ",
"    .XXXXXXXXXXXXXXXXX..X.    ",
"    .X....XXXXXXXXXXXXXXX.    ",
"   ..XXXXXXXXXXXXXXXXXXXX..   ",
"   ..XXXXXXX..........XXX..   ",
"  .o.XXXXXXXXXXXXXXXXXXXX.o.  ",
"  ........XX.......X........  ",
"  .ooooooo.XXXXXXXX.ooooooo.  ",
"  .oooooooo........oooooooo.  ",
"  .oooooooooooooooooooooooo.  ",
"  .oooooooooooooooooooooooo.  ",
"   ........................   "};
