/* XPM */
static char * mailbox[] = {
"15 13 4 1",
" 	c None",
".	c #FFFF10104242",
"X	c #000000000000",
"o	c #9797C2C2E6E6",
"               ",
"      ..       ",
"      .        ",
"  XXXX.XXXX    ",
"  Xooo.oooX    ",
"  Xooo.oooX    ",
"  XoooooooX    ",
"  XXXXXXXXXXXX ",
"      XX     X ",
"      XX       ",
"      XX       ",
"               ",
"               "};
