/* XPM */
static char *mini_left[] = {
/* width height num_colors chars_per_pixel */
"    16    14        4            1",
/* colors */
". c None",
"# c #000000",
"a c #868286",
"b c #ffffff",
/* pixels */
"................",
".......#........",
"......##........",
".....#b#........",
"....#b.########.",
"...#bb........#.",
"..#bb.........#.",
".aa#b.........#.",
"..aa#b.########.",
"...aa#b#aaaaaa..",
"....aa##a.......",
".....aa#a.......",
"......aaa.......",
"................"
};
