/* XPM */
static char *mini_right[] = {
/* width height num_colors chars_per_pixel */
"    16    14        4            1",
/* colors */
". c None",
"# c #000000",
"a c #ffffff",
"b c #868286",
/* pixels */
"................",
".........#......",
".........##.....",
".........#a#....",
"..########.a#...",
".b#........aa#..",
".b#.........aa#.",
".b#.........a#..",
".b########.a#...",
".bbbbbbbb#a#b...",
"........b##b....",
"........b#b.....",
"........bb......",
"................"
};
