/* XPM */
static char * send_xpm[] = {
"18 14 5 1",
" 	c None",
".	c #828282828282",
"X	c #FFFFFFFFFFFF",
"o	c #00000000FFFF",
"O	c #C3C3C3C3C3C3",
"                  ",
"   .............. ",
".. .XXXXXXXXXXoo. ",
"   .X..O..XXXXoo.O",
".. .X.O.OXXXXXoo.O",
"   .X.O.O.XXXXXX.O",
".. .XXXXXXXXXXXX.O",
"   .XXXX.O..O.XX.O",
".. .XXXX..O..XXX.O",
"   .XXXX...O..XX.O",
".. .XXXXXXXXXXXX.O",
"   ..............O",
"     OOOOOOOOOOOOO",
"                  "};
