/* XPM */
static char * unlock_xpm[] = {
"16 16 4 1",
" 	c None",
".	c #000000000000",
"X	c #B5B5B2B2B5B5",
"o	c #FFFFFFFFFFFF",
"                ",
"         ....   ",
"       X.oooo.X ",
"       .oX..Xo. ",
"       .o.XX.o. ",
"       .o.X .o. ",
"       .o.X ... ",
" ..........     ",
" .XXXXXXXX.X    ",
" .X......X.X    ",
" .XooooooX.X    ",
" .X......X.X    ",
" .XXXXXXXX.X    ",
" ..........X    ",
"  XXXXXXXXXX    ",
"                "};
