/* XPM */
static const char * git_status[] = {
"16 16 2 1",
" 	c None",
".	c #666666",
"   ...  ........",
"  ....  ........",
" ...    .....   ",
" ..     .. ...  ",
"...     ..  ... ",
"..      ..   .. ",
"..      ..   ...",
"..            ..",
"..            ..",
"..            ..",
"...          ...",
" ..          .. ",
" ...        ... ",
"  ....    ....  ",
"   ..........   ",
"     ......     "};
