/* XPM */
static const char *month[] = {
/* width height num_colors chars_per_pixel */
"    16    15        6            1",
/* colors */
". c #000000",
"# c #808080",
"a c #800000",
"b c #000080",
"c c #ffffff",
"d c #c0c0c0",
/* pixels */
"................",
".bbbbbbb#######.",
".bbbbbbb#######.",
".ccdccdccdccdcc.",
".ccdbbbccdcbbcc.",
".ddbbdbbddbbbdd.",
".ccdccbbcbbbbcc.",
".ccdcbbccbcbbcc.",
".dddddbbdddbbdd.",
".ccdccbbcdcbbcc.",
".ccbbcbbcdcbbcc.",
".dddbbbddddbbdd.",
".ccdccdccdccdcc.",
".ccdccdccdccdcc.",
"................"
};
