/* XPM */
static const char * openfolderIcon_xpm[] = {
"15 15 5 1",
" 	c None",
".	c #636365656363",
"X	c #F7F7DFDFB5B5",
"o	c #E7E7E7E7E7E7",
"O	c #000000000000",
"               ",
"   .....       ",
"  .XXXXX.      ",
" .XXXXXXX......",
" .XXXXXXXXXXXX.",
" .XXXXXXXXXXXX.",
".............X.",
".oooooooooo.OX.",
".XXXXXXXXXXXO..",
" .XXXXXXXXXX.O.",
" .XXXXXXXXXXXO.",
"  .XXXXXXXXXX.O",
"  .............",
"   OOOOOOOOOOOO",
"               "};
