/* XPM */
static const char * syg_home_folder_large[] = {
"32 32 8 1",
" 	c None",
".	c #808080808080",
"X	c white",
"o	c yellow",
"O	c #C0C0C0C0C0C0",
"+	c black",
"@	c #808080800000",
"#	c wheat",
"                                ",
"                                ",
"                                ",
"                                ",
"                                ",
"    .........                   ",
"   .XXXXXXXXX.                  ",
"  .XoOoOoOoOoO.                 ",
" .XoOoOoOoOoOoO.                ",
".OOOOOOOOOOOOOOO..............+ ",
".XXXXXXXXXXXXXXXXXXXXXXXXXXXXX++",
".XoOoOoOoOoOoOoOoOoOoOoOoOoOoO@+",
".XOoOoOoOoOoOoOoOoOoOoOoOoOoOo@+",
".XoOoOoOoOoOoOoOoOoOoOoOoOoOoO@+",
".XOoOoOoOoOO+++++OOoOoOoOoOoOo@+",
".XoOoOoOoOO+######+OoOoOoOoOoO@+",
".XOoOoOoOo+#####+#+oOoOoOoOoOo@+",
".XoOoOoOoO+#####+##+oOoOoOoOoO@+",
".XOoOoOoOo+########+OoOoOoOoOo@+",
".XoOoOoOoO+#########+OoOoOoOoO@+",
".XOoOoOoOo+#########+oOoOoOoOo@+",
".XoOoOoOoO+#######++OOoOoOoOoO@+",
".XOoOoOoOo+########+OoOoOoOoOo@+",
".XoOoOoOoO+#####+##+oOoOoOoOoO@+",
".XOoOoOoOo+######+++OoOoOoOoOo@+",
".XoOoOoOoOO+#######+oOoOoOoOoO@+",
".XOoOoOoOoOO+++++++oOoOoOoOoOo@+",
".XoOoOoOoOoOoOoOoOoOoOoOoOoOoO@+",
".XOoOoOoOoOoOoOoOoOoOoOoOoOoOo@+",
".XoOoOoOoOoOoOoOoOoOoOoOoOoOoO@+",
".@@@@@@@@@@@@@@@@@@@@@@@@@@@@@@+",
" ++++++++++++++++++++++++++++++ "};
