/* XPM */
static const char * syg_floppy_folder_read_only_large[] = {
"32 32 13 1",
" 	c None",
".	c #808080808080",
"X	c white",
"o	c yellow",
"O	c #C0C0C0C0C0C0",
"+	c black",
"@	c #808080800000",
"# c #cccccc",
"a c #eeeeee",
"b c #888888",
"c c #aaaaaa",
"d c #555555",
"e c #000000",
"                                ",
"                                ",
"                                ",
"                                ",
"                                ",
"    .........                   ",
"   .+++++++++.                  ",
"  .+++++++++++.                 ",
" .XoOoOoOoOoOoO.                ",
".OOOOOOOOOOOOOOO..............+ ",
".XXXXXXXXXXXXXXXXXXXXXXXXXXXXX++",
".XoOoOoOoOoOoOoOoOoOoOoOoOoOoO@+",
".XOoOoOoOoOoOoOoOoOoOoOoOoOoOo@+",
".XoOoOoOoeeeeeeeeeeeeeoOoOoOoO@+",
".XOoOoOoe##dbbbbbbbba#eoOoOoOo@+",
".XoOoOoOe##dbbbbbeeba##eoOoOoO@+",
".XOoOoOoe##dbbbbbbbba##eOoOoOo@+",
".XoOoOoOe###aaaaaaaa###eoOoOoO@+",
".XOoOoOoe##############eOoOoOo@+",
".XoOoOoOe##cccccccccc##eoOoOoO@+",
".XOoOoOoe#c##########a#eOoOoOo@+",
".XoOoOoOe#c##########a#eoOoOoO@+",
".XOoOoOoe#c##########a#eOoOoOo@+",
".XoOoOoOe#c##########a#eoOoOoO@+",
".XOoOoOoe#c##########a#eOoOoOo@+",
".XoOoOoOe#c##########a#eoOoOoO@+",
".XOoOoOoe#c##########a#eOoOoOo@+",
".XoOoOoOe#c##########a#eoOoOoO@+",
".XOoOoOoeeeeeeeeeeeeeeeeOoOoOo@+",
".XoOoOoOoOoOoOoOoOoOoOoOoOoOoO@+",
".@@@@@@@@@@@@@@@@@@@@@@@@@@@@@@+",
" ++++++++++++++++++++++++++++++ "};
