/* XPM */
static const char * syg_zip_folder_read_only_large[] = {
"32 32 13 1",
" 	c None",
".	c #808080808080",
"X	c white",
"o	c yellow",
"O	c #C0C0C0C0C0C0",
"+	c black",
"@	c #808080800000",
"a	c black",
"b	c white",
"c	c #410345144103",
"d	c #AEBAAAAAAEBA",
"e	c #30C200009E79",
"f	c #DF7D00000000",
"                                ",
"                                ",
"                                ",
"                                ",
"                                ",
"    .........                   ",
"   .+++++++++.                  ",
"  .+++++++++++.                 ",
" .XoOoOoOoOoOoO.                ",
".OOOOOOOOOOOOOOO..............+ ",
".XXXXXXXXXXXXXXXXXXXXXXXXXXXXX++",
".XoOoOoOoOoOoOoOoOoOoOoOoOoOoO@+",
".XOoOoOoOoOoOoOoOoOoOoOoOoOoOo@+",
".XoOoOoOoOaaaaaaaaaaaaoOoOoOoO@+",
".XOoOoOoOacdddcddddddcaoOoOoOo@+",
".XoOoOoOadcdddccccccccdaoOoOoO@+",
".XOoOoOoadcddddddddddcdaOoOoOo@+",
".XoOoOoOadcdaaadadaadcdaoOoOoO@+",
".XOoOoOoadcddaddadadacdaOoOoOo@+",
".XoOoOoOadcdaaadadaaddddoOoOoO@+",
".XOoOoOoadcdddddddaddeedOoOoOo@+",
".XoOoOoOadcccfffffffdeedoOoOoO@+",
".XOoOoOoadcbbbbbbbbbddddOoOoOo@+",
".XoOoOoOadcbabbabbabffffoOoOoO@+",
".XOoOoOoadcbababaabafbbfOoOoOo@+",
".XoOoOoOadcbababaabaffbfoOoOoO@+",
".XOoOoOoadcbabbabbabffbfOoOoOo@+",
".XoOoOoOaacbbbbbbbbbffbfoOoOoO@+",
".XOoOoOoOoaaaaaaaaaaffffOoOoOo@+",
".XoOoOoOoOoOoOoOoOoOoOoOoOoOoO@+",
".@@@@@@@@@@@@@@@@@@@@@@@@@@@@@@+",
" ++++++++++++++++++++++++++++++ "};
