/* XPM */
static char *gray_scale[] = {
/* width height num_colors chars_per_pixel */
"   256    10      256            2",
/* colors */
".. c #000000",
".# c #010101",
".a c #020202",
".b c #030303",
".c c #040404",
".d c #050505",
".e c #060606",
".f c #070707",
".g c #080808",
".h c #090909",
".i c #0a0a0a",
".j c #0b0b0b",
".k c #0c0c0c",
".l c #0d0d0d",
".m c #0e0e0e",
".n c #0f0f0f",
".o c #101010",
".p c #111111",
".q c #121212",
".r c #131313",
".s c #141414",
".t c #151515",
".u c #161616",
".v c #171717",
".w c #181818",
".x c #191919",
".y c #1a1a1a",
".z c #1b1b1b",
".A c #1c1c1c",
".B c #1d1d1d",
".C c #1e1e1e",
".D c #1f1f1f",
".E c #202020",
".F c #212121",
".G c #222222",
".H c #232323",
".I c #242424",
".J c #252525",
".K c #262626",
".L c #272727",
".M c #282828",
".N c #292929",
".O c #2a2a2a",
".P c #2b2b2b",
".Q c #2c2c2c",
".R c #2d2d2d",
".S c #2e2e2e",
".T c #2f2f2f",
".U c #303030",
".V c #313131",
".W c #323232",
".X c #333333",
".Y c #343434",
".Z c #353535",
".0 c #363636",
".1 c #373737",
".2 c #383838",
".3 c #393939",
".4 c #3a3a3a",
".5 c #3b3b3b",
".6 c #3c3c3c",
".7 c #3d3d3d",
".8 c #3e3e3e",
".9 c #3f3f3f",
"#. c #404040",
"## c #414141",
"#a c #424242",
"#b c #434343",
"#c c #444444",
"#d c #454545",
"#e c #464646",
"#f c #474747",
"#g c #484848",
"#h c #494949",
"#i c #4a4a4a",
"#j c #4b4b4b",
"#k c #4c4c4c",
"#l c #4d4d4d",
"#m c #4e4e4e",
"#n c #4f4f4f",
"#o c #505050",
"#p c #515151",
"#q c #525252",
"#r c #535353",
"#s c #545454",
"#t c #555555",
"#u c #565656",
"#v c #575757",
"#w c #585858",
"#x c #595959",
"#y c #5a5a5a",
"#z c #5b5b5b",
"#A c #5c5c5c",
"#B c #5d5d5d",
"#C c #5e5e5e",
"#D c #5f5f5f",
"#E c #606060",
"#F c #616161",
"#G c #626262",
"#H c #636363",
"#I c #646464",
"#J c #656565",
"#K c #666666",
"#L c #676767",
"#M c #686868",
"#N c #696969",
"#O c #6a6a6a",
"#P c #6b6b6b",
"#Q c #6c6c6c",
"#R c #6d6d6d",
"#S c #6e6e6e",
"#T c #6f6f6f",
"#U c #707070",
"#V c #717171",
"#W c #727272",
"#X c #737373",
"#Y c #747474",
"#Z c #757575",
"#0 c #767676",
"#1 c #777777",
"#2 c #787878",
"#3 c #797979",
"#4 c #7a7a7a",
"#5 c #7b7b7b",
"#6 c #7c7c7c",
"#7 c #7d7d7d",
"#8 c #7e7e7e",
"#9 c #7f7f7f",
"a. c #808080",
"a# c #818181",
"aa c #828282",
"ab c #838383",
"ac c #848484",
"ad c #858585",
"ae c #868686",
"af c #878787",
"ag c #888888",
"ah c #898989",
"ai c #8a8a8a",
"aj c #8b8b8b",
"ak c #8c8c8c",
"al c #8d8d8d",
"am c #8e8e8e",
"an c #8f8f8f",
"ao c #909090",
"ap c #919191",
"aq c #929292",
"ar c #939393",
"as c #949494",
"at c #959595",
"au c #969696",
"av c #979797",
"aw c #989898",
"ax c #999999",
"ay c #9a9a9a",
"az c #9b9b9b",
"aA c #9c9c9c",
"aB c #9d9d9d",
"aC c #9e9e9e",
"aD c #9f9f9f",
"aE c #a0a0a0",
"aF c #a1a1a1",
"aG c #a2a2a2",
"aH c #a3a3a3",
"aI c #a4a4a4",
"aJ c #a5a5a5",
"aK c #a6a6a6",
"aL c #a7a7a7",
"aM c #a8a8a8",
"aN c #a9a9a9",
"aO c #aaaaaa",
"aP c #ababab",
"aQ c #acacac",
"aR c #adadad",
"aS c #aeaeae",
"aT c #afafaf",
"aU c #b0b0b0",
"aV c #b1b1b1",
"aW c #b2b2b2",
"aX c #b3b3b3",
"aY c #b4b4b4",
"aZ c #b5b5b5",
"a0 c #b6b6b6",
"a1 c #b7b7b7",
"a2 c #b8b8b8",
"a3 c #b9b9b9",
"a4 c #bababa",
"a5 c #bbbbbb",
"a6 c #bcbcbc",
"a7 c #bdbdbd",
"a8 c #bebebe",
"a9 c #bfbfbf",
"b. c #c0c0c0",
"b# c #c1c1c1",
"ba c #c2c2c2",
"bb c #c3c3c3",
"bc c #c4c4c4",
"bd c #c5c5c5",
"be c #c6c6c6",
"bf c #c7c7c7",
"bg c #c8c8c8",
"bh c #c9c9c9",
"bi c #cacaca",
"bj c #cbcbcb",
"bk c #cccccc",
"bl c #cdcdcd",
"bm c #cecece",
"bn c #cfcfcf",
"bo c #d0d0d0",
"bp c #d1d1d1",
"bq c #d2d2d2",
"br c #d3d3d3",
"bs c #d4d4d4",
"bt c #d5d5d5",
"bu c #d6d6d6",
"bv c #d7d7d7",
"bw c #d8d8d8",
"bx c #d9d9d9",
"by c #dadada",
"bz c #dbdbdb",
"bA c #dcdcdc",
"bB c #dddddd",
"bC c #dedede",
"bD c #dfdfdf",
"bE c #e0e0e0",
"bF c #e1e1e1",
"bG c #e2e2e2",
"bH c #e3e3e3",
"bI c #e4e4e4",
"bJ c #e5e5e5",
"bK c #e6e6e6",
"bL c #e7e7e7",
"bM c #e8e8e8",
"bN c #e9e9e9",
"bO c #eaeaea",
"bP c #ebebeb",
"bQ c #ececec",
"bR c #ededed",
"bS c #eeeeee",
"bT c #efefef",
"bU c #f0f0f0",
"bV c #f1f1f1",
"bW c #f2f2f2",
"bX c #f3f3f3",
"bY c #f4f4f4",
"bZ c #f5f5f5",
"b0 c #f6f6f6",
"b1 c #f7f7f7",
"b2 c #f8f8f8",
"b3 c #f9f9f9",
"b4 c #fafafa",
"b5 c #fbfbfb",
"b6 c #fcfcfc",
"b7 c #fdfdfd",
"b8 c #fefefe",
"b9 c #ffffff",
/* pixels */
"...#.a.b.c.d.e.f.g.h.i.j.k.l.m.n.o.p.q.r.s.t.u.v.w.x.y.z.A.B.C.D.E.F.G.H.I.J.K.L.M.N.O.P.Q.R.S.T.U.V.W.X.Y.Z.0.1.2.3.4.5.6.7.8.9#.###a#b#c#d#e#f#g#h#i#j#k#l#m#n#o#p#q#r#s#t#u#v#w#x#y#z#A#B#C#D#E#F#G#H#I#J#K#L#M#N#O#P#Q#R#S#T#U#V#W#X#Y#Z#0#1#2#3#4#5#6#7#8#9a.a#aaabacadaeafagahaiajakalamanaoapaqarasatauavawaxayazaAaBaCaDaEaFaGaHaIaJaKaLaMaNaOaPaQaRaSaTaUaVaWaXaYaZa0a1a2a3a4a5a6a7a8a9b.b#babbbcbdbebfbgbhbibjbkblbmbnbobpbqbrbsbtbubvbwbxbybzbAbBbCbDbEbFbGbHbIbJbKbLbMbNbObPbQbRbSbTbUbVbWbXbYbZb0b1b2b3b4b5b6b7b8b9",
"...#.a.b.c.d.e.f.g.h.i.j.k.l.m.n.o.p.q.r.s.t.u.v.w.x.y.z.A.B.C.D.E.F.G.H.I.J.K.L.M.N.O.P.Q.R.S.T.U.V.W.X.Y.Z.0.1.2.3.4.5.6.7.8.9#.###a#b#c#d#e#f#g#h#i#j#k#l#m#n#o#p#q#r#s#t#u#v#w#x#y#z#A#B#C#D#E#F#G#H#I#J#K#L#M#N#O#P#Q#R#S#T#U#V#W#X#Y#Z#0#1#2#3#4#5#6#7#8#9a.a#aaabacadaeafagahaiajakalamanaoapaqarasatauavawaxayazaAaBaCaDaEaFaGaHaIaJaKaLaMaNaOaPaQaRaSaTaUaVaWaXaYaZa0a1a2a3a4a5a6a7a8a9b.b#babbbcbdbebfbgbhbibjbkblbmbnbobpbqbrbsbtbubvbwbxbybzbAbBbCbDbEbFbGbHbIbJbKbLbMbNbObPbQbRbSbTbUbVbWbXbYbZb0b1b2b3b4b5b6b7b8b9",
"...#.a.b.c.d.e.f.g.h.i.j.k.l.m.n.o.p.q.r.s.t.u.v.w.x.y.z.A.B.C.D.E.F.G.H.I.J.K.L.M.N.O.P.Q.R.S.T.U.V.W.X.Y.Z.0.1.2.3.4.5.6.7.8.9#.###a#b#c#d#e#f#g#h#i#j#k#l#m#n#o#p#q#r#s#t#u#v#w#x#y#z#A#B#C#D#E#F#G#H#I#J#K#L#M#N#O#P#Q#R#S#T#U#V#W#X#Y#Z#0#1#2#3#4#5#6#7#8#9a.a#aaabacadaeafagahaiajakalamanaoapaqarasatauavawaxayazaAaBaCaDaEaFaGaHaIaJaKaLaMaNaOaPaQaRaSaTaUaVaWaXaYaZa0a1a2a3a4a5a6a7a8a9b.b#babbbcbdbebfbgbhbibjbkblbmbnbobpbqbrbsbtbubvbwbxbybzbAbBbCbDbEbFbGbHbIbJbKbLbMbNbObPbQbRbSbTbUbVbWbXbYbZb0b1b2b3b4b5b6b7b8b9",
"...#.a.b.c.d.e.f.g.h.i.j.k.l.m.n.o.p.q.r.s.t.u.v.w.x.y.z.A.B.C.D.E.F.G.H.I.J.K.L.M.N.O.P.Q.R.S.T.U.V.W.X.Y.Z.0.1.2.3.4.5.6.7.8.9#.###a#b#c#d#e#f#g#h#i#j#k#l#m#n#o#p#q#r#s#t#u#v#w#x#y#z#A#B#C#D#E#F#G#H#I#J#K#L#M#N#O#P#Q#R#S#T#U#V#W#X#Y#Z#0#1#2#3#4#5#6#7#8#9a.a#aaabacadaeafagahaiajakalamanaoapaqarasatauavawaxayazaAaBaCaDaEaFaGaHaIaJaKaLaMaNaOaPaQaRaSaTaUaVaWaXaYaZa0a1a2a3a4a5a6a7a8a9b.b#babbbcbdbebfbgbhbibjbkblbmbnbobpbqbrbsbtbubvbwbxbybzbAbBbCbDbEbFbGbHbIbJbKbLbMbNbObPbQbRbSbTbUbVbWbXbYbZb0b1b2b3b4b5b6b7b8b9",
"...#.a.b.c.d.e.f.g.h.i.j.k.l.m.n.o.p.q.r.s.t.u.v.w.x.y.z.A.B.C.D.E.F.G.H.I.J.K.L.M.N.O.P.Q.R.S.T.U.V.W.X.Y.Z.0.1.2.3.4.5.6.7.8.9#.###a#b#c#d#e#f#g#h#i#j#k#l#m#n#o#p#q#r#s#t#u#v#w#x#y#z#A#B#C#D#E#F#G#H#I#J#K#L#M#N#O#P#Q#R#S#T#U#V#W#X#Y#Z#0#1#2#3#4#5#6#7#8#9a.a#aaabacadaeafagahaiajakalamanaoapaqarasatauavawaxayazaAaBaCaDaEaFaGaHaIaJaKaLaMaNaOaPaQaRaSaTaUaVaWaXaYaZa0a1a2a3a4a5a6a7a8a9b.b#babbbcbdbebfbgbhbibjbkblbmbnbobpbqbrbsbtbubvbwbxbybzbAbBbCbDbEbFbGbHbIbJbKbLbMbNbObPbQbRbSbTbUbVbWbXbYbZb0b1b2b3b4b5b6b7b8b9",
"...#.a.b.c.d.e.f.g.h.i.j.k.l.m.n.o.p.q.r.s.t.u.v.w.x.y.z.A.B.C.D.E.F.G.H.I.J.K.L.M.N.O.P.Q.R.S.T.U.V.W.X.Y.Z.0.1.2.3.4.5.6.7.8.9#.###a#b#c#d#e#f#g#h#i#j#k#l#m#n#o#p#q#r#s#t#u#v#w#x#y#z#A#B#C#D#E#F#G#H#I#J#K#L#M#N#O#P#Q#R#S#T#U#V#W#X#Y#Z#0#1#2#3#4#5#6#7#8#9a.a#aaabacadaeafagahaiajakalamanaoapaqarasatauavawaxayazaAaBaCaDaEaFaGaHaIaJaKaLaMaNaOaPaQaRaSaTaUaVaWaXaYaZa0a1a2a3a4a5a6a7a8a9b.b#babbbcbdbebfbgbhbibjbkblbmbnbobpbqbrbsbtbubvbwbxbybzbAbBbCbDbEbFbGbHbIbJbKbLbMbNbObPbQbRbSbTbUbVbWbXbYbZb0b1b2b3b4b5b6b7b8b9",
"...#.a.b.c.d.e.f.g.h.i.j.k.l.m.n.o.p.q.r.s.t.u.v.w.x.y.z.A.B.C.D.E.F.G.H.I.J.K.L.M.N.O.P.Q.R.S.T.U.V.W.X.Y.Z.0.1.2.3.4.5.6.7.8.9#.###a#b#c#d#e#f#g#h#i#j#k#l#m#n#o#p#q#r#s#t#u#v#w#x#y#z#A#B#C#D#E#F#G#H#I#J#K#L#M#N#O#P#Q#R#S#T#U#V#W#X#Y#Z#0#1#2#3#4#5#6#7#8#9a.a#aaabacadaeafagahaiajakalamanaoapaqarasatauavawaxayazaAaBaCaDaEaFaGaHaIaJaKaLaMaNaOaPaQaRaSaTaUaVaWaXaYaZa0a1a2a3a4a5a6a7a8a9b.b#babbbcbdbebfbgbhbibjbkblbmbnbobpbqbrbsbtbubvbwbxbybzbAbBbCbDbEbFbGbHbIbJbKbLbMbNbObPbQbRbSbTbUbVbWbXbYbZb0b1b2b3b4b5b6b7b8b9",
"...#.a.b.c.d.e.f.g.h.i.j.k.l.m.n.o.p.q.r.s.t.u.v.w.x.y.z.A.B.C.D.E.F.G.H.I.J.K.L.M.N.O.P.Q.R.S.T.U.V.W.X.Y.Z.0.1.2.3.4.5.6.7.8.9#.###a#b#c#d#e#f#g#h#i#j#k#l#m#n#o#p#q#r#s#t#u#v#w#x#y#z#A#B#C#D#E#F#G#H#I#J#K#L#M#N#O#P#Q#R#S#T#U#V#W#X#Y#Z#0#1#2#3#4#5#6#7#8#9a.a#aaabacadaeafagahaiajakalamanaoapaqarasatauavawaxayazaAaBaCaDaEaFaGaHaIaJaKaLaMaNaOaPaQaRaSaTaUaVaWaXaYaZa0a1a2a3a4a5a6a7a8a9b.b#babbbcbdbebfbgbhbibjbkblbmbnbobpbqbrbsbtbubvbwbxbybzbAbBbCbDbEbFbGbHbIbJbKbLbMbNbObPbQbRbSbTbUbVbWbXbYbZb0b1b2b3b4b5b6b7b8b9",
"...#.a.b.c.d.e.f.g.h.i.j.k.l.m.n.o.p.q.r.s.t.u.v.w.x.y.z.A.B.C.D.E.F.G.H.I.J.K.L.M.N.O.P.Q.R.S.T.U.V.W.X.Y.Z.0.1.2.3.4.5.6.7.8.9#.###a#b#c#d#e#f#g#h#i#j#k#l#m#n#o#p#q#r#s#t#u#v#w#x#y#z#A#B#C#D#E#F#G#H#I#J#K#L#M#N#O#P#Q#R#S#T#U#V#W#X#Y#Z#0#1#2#3#4#5#6#7#8#9a.a#aaabacadaeafagahaiajakalamanaoapaqarasatauavawaxayazaAaBaCaDaEaFaGaHaIaJaKaLaMaNaOaPaQaRaSaTaUaVaWaXaYaZa0a1a2a3a4a5a6a7a8a9b.b#babbbcbdbebfbgbhbibjbkblbmbnbobpbqbrbsbtbubvbwbxbybzbAbBbCbDbEbFbGbHbIbJbKbLbMbNbObPbQbRbSbTbUbVbWbXbYbZb0b1b2b3b4b5b6b7b8b9",
"...#.a.b.c.d.e.f.g.h.i.j.k.l.m.n.o.p.q.r.s.t.u.v.w.x.y.z.A.B.C.D.E.F.G.H.I.J.K.L.M.N.O.P.Q.R.S.T.U.V.W.X.Y.Z.0.1.2.3.4.5.6.7.8.9#.###a#b#c#d#e#f#g#h#i#j#k#l#m#n#o#p#q#r#s#t#u#v#w#x#y#z#A#B#C#D#E#F#G#H#I#J#K#L#M#N#O#P#Q#R#S#T#U#V#W#X#Y#Z#0#1#2#3#4#5#6#7#8#9a.a#aaabacadaeafagahaiajakalamanaoapaqarasatauavawaxayazaAaBaCaDaEaFaGaHaIaJaKaLaMaNaOaPaQaRaSaTaUaVaWaXaYaZa0a1a2a3a4a5a6a7a8a9b.b#babbbcbdbebfbgbhbibjbkblbmbnbobpbqbrbsbtbubvbwbxbybzbAbBbCbDbEbFbGbHbIbJbKbLbMbNbObPbQbRbSbTbUbVbWbXbYbZb0b1b2b3b4b5b6b7b8b9"
};
