/* XPM */
static const char * gfg_about_icon[] = {
"40 40 3 1",
" 	c None",
".	c #000000000000",
"X	c #FFFFFFFFFFFF",
"                                        ",
"                                        ",
"                                        ",
"    .......................             ",
"    .XXXXXXXXXXXXXXXXXXXXX.             ",
"    .XXXXXXXXXXXXXXXXXXXXX.             ",
"    .XXXXXXXXXXXXXXXXXXXXX.             ",
"    .XXXXXXXXXXXXXXXXXXXXX.             ",
"    .XXXXXXXXXXXXXXXXXXXXX.             ",
"    .XXXXXXXXXXXXXXXXXXXXX.             ",
"    .XXXXXXXXXXXXXXXXXXXXX.             ",
"    .XXXXXXXXXXXXXXXXXXXXX.             ",
"    .XXXXXXXXXXXXXXXXXXXXX.             ",
"    .XXXXXXXXXXX....................    ",
"    .XXXXXXXXXXX.XXXXXXXXX.        .    ",
"    .XXXXXXXXXXX.XXXXXXXXX.        .    ",
"    .XXXXXXXXXXX.XXXXXXXXX.        .    ",
"    .XXXXXXXXXXX.XXXXXXXXX.        .    ",
"    .XXXXXXXXXXX.XXXXXXXXX.        .    ",
"    .XXXXXXXXXXX.XXXXXXXXX.        .    ",
"    .XXXXXXXXXXX.XXXXXXXXX.        .    ",
"    .XXXXXXXXXXX.XXXXXXXXX.        .    ",
"    .XXXXXXXXXXX.XXXXXXXXX.        .    ",
"    .XXXXXXXXXXX.XXXXXXXXX.        .    ",
"    .XXXXXXXXXXX.XXXXXXXXX.        .    ",
"    .XXXXXXXXXXX.XXXXXXXXX.        .    ",
"    .......................        .    ",
"                .                  .    ",
"                .                  .    ",
"                .                  .    ",
"                .                  .    ",
"                .                  .    ",
"                .                  .    ",
"                .                  .    ",
"                ....................    ",
"                                        ",
"                                        ",
"                                        ",
"                                        ",
"                                        "};
