/* XPM */
static const char * gfg_main_window_icon[] = {
"24 28 3 1",
" 	c None",
".	c #000000000000",
"X	c #FFFFFFFFFFFF",
"                        ",
"                        ",
"                        ",
"  ...............       ",
"  .XXXXXXXXXXXXX.       ",
"  .XXXXXXXXXXXXX.       ",
"  .XXXXXXXXXXXXX.       ",
"  .XXXXXXXXXXXXX.       ",
"  .XXXXXXXXXXXXX.       ",
"  .XXXXXXXXXXXXX.       ",
"  .XXXXXXXXXXXXX.       ",
"  .XXXXXXXXXXXXX.       ",
"  .XXXXXX.............  ",
"  .XXXXXX.XXXXXX.    .  ",
"  .XXXXXX.XXXXXX.    .  ",
"  .XXXXXX.XXXXXX.    .  ",
"  .XXXXXX.XXXXXX.    .  ",
"  .XXXXXX.XXXXXX.    .  ",
"  .XXXXXX.XXXXXX.    .  ",
"  ...............    .  ",
"         .           .  ",
"         .           .  ",
"         .           .  ",
"         .           .  ",
"         .           .  ",
"         .............  ",
"                        ",
"                        "};
