/* XPM */
static const char * medic_about[] = {
"40 40 6 1",
" 	c None",
".	c #FFFF10104242",
"X	c #000000000000",
"o	c #F4F4F4F4F4F4",
"O	c #FFFFFFFFFFFF",
"+	c #666666666666",
"                                        ",
"                                        ",
"              ...........               ",
"              ...........               ",
"              ...........               ",
"              ...........               ",
"              ...........               ",
"       XXXX   ...........               ",
"      XoXoOXXXX..........               ",
"     XoooXoooooX.........               ",
"     XooooXoooooX.........X......       ",
"     XoooooXoooooX....XXXXOX.....       ",
"      XoooooXoooooX..XoooooX.....       ",
"       XoooooXoooooXXoooooXoX....       ",
"       .XoooooXooooXoooooXoX.....       ",
"       ..XoooooXooXoooooXooOX....       ",
"       ...XoooooXXoooooXoooXX....       ",
"       ....XooooXoooooXoooXX.....       ",
"       .....XooXoooooXooooX......       ",
"       ......XXoooooXoooooX......       ",
"       ......XoooooXoooooXX......       ",
"            XoooooXoooooXooX            ",
"   X       XoooooXoooooXooooX       X   ",
"  X+X     XoooooXoooooXXoooooX     X+X  ",
" X+++X   XoooooXoooooXooXoooooX   X+++X ",
"X+++++X XoooooXoooooXooooXoooooX X+++++X",
" X+++++XoooooXoooooXXoooooXoooooX+++++X ",
"  X+++++XoooXoooooX..XoooooXoooX+++++X  ",
"   X+++++XoXoooooX....XoooooXoX+++++X   ",
"    X+++++XoooooX      XoooooX+++++X    ",
"     X+++++XoooX        XoooX+++++X     ",
"    XOX+++++XoX          XoX+++++XOX    ",
"   XOXOX+++++X            X+++++XOXOX   ",
"  XOXOXOX+++++X          X+++++XOXOXOX  ",
" XOXOXOXOX+++++X        X+++++XOXOXOXOX ",
"XOXOXOXOX X+++++X      X+++++X XOXOXOXOX",
"OXOXOXOX   X+++++X    X+++++X   XOXOXOXO",
"XOXOXOX     X+++X      X+++X     XOXOXOX",
" XOXOX       X+X        X+X       XOXOX ",
"  XOX         X          X         XOX  "};
