/* XPM */
static const char * medic_run_program[] = {
"15 15 6 1",
" 	c None",
".	c gray40",
"X	c white",
"o	c wheat",
"O	c gray50",
"-	c black",
"-             -",
" -     .     - ",
"  -   .X.   -  ",
"     .XXX.     ",
"    .XXXXX.    ",
"   .XXXX..X.   ",
"  .XXXX.oo.X.  ",
"   .XX----o.   ",
"   O.XXX.oo--  ",
"    O.XXX..--  ",
"     O.X.O --  ",
"      O.O      ",
"  -    O    -  ",
" -           - ",
"-             -"};
