/* XPM */
static const char * medic_threads_window[] = {
"30 30 4 1",
" 	c grey80",
".	c black",
"X	c red",
"o	c blue",
"         .   X      o         ",
"        .    X      o         ",
"       .    X        o        ",
"      .     X        o        ",
"      .     X        o        ",
"     .      X       o         ",
"     .       X     o          ",
"     .        X  oo           ",
"     .         oo             ",
"      .       o  X            ",
"      .     oo    X           ",
"       .   o       X          ",
"        . o        X          ",
"         o          X         ",
"         o.          X        ",
"        o  .          X       ",
"        o   .         X       ",
"        o    .         X      ",
"        o    .         X      ",
"        o     .        X      ",
"         o    .        X      ",
"         o    .        X      ",
"          o   .       X       ",
"          o   .       X       ",
"           o .       X        ",
"           o .       X        ",
"            .       X         ",
"           . o      X         ",
"          .   o    X          ",
"         .     o   X          "};
