/* XPM */
static const char * medic_show_1d_array[] = {
"15 11 2 1",
" 	c None",
"*	c black",
"  ****   ****  ",
"  *         *  ",
"  *         *  ",
"  *         *  ",
"  *         *  ",
"  *         *  ",
"  *         *  ",
"  *         *  ",
"  *         *  ",
"  *         *  ",
"  ****   ****  "};
