/* XPM */
static const char * medic_show_current_source[] = {
"10 15 3 1",
" 	c None",
".	c black",
"X	c cyan",
"          ",
" .        ",
" ..       ",
" .X.      ",
" .XX.     ",
" .XXX.    ",
" .XXXX.   ",
" .XXXXX.  ",
" .XXXX.   ",
" .XXX.    ",
" .XX.     ",
" .X.      ",
" ..       ",
" .        ",
"          "};
