/* XPM */
static const char * medic_nexti[] = {
"15 15 3 1",
" 	c None",
".	c black",
"X	c magenta",
"             ..",
"             ..",
"      X      ..",
"      XX     ..",
"      X X    ..",
"XXXXXXX  X   ..",
"X         X  ..",
"X          X ..",
"X         X  ..",
"XXXXXXX  X   ..",
"      X X    ..",
"      XX     ..",
"      X      ..",
"             ..",
"             .."};
