/* XPM */
static const char * medic_breakpoints_window[] = {
"30 30 3 1",
" 	c grey80",
".	c black",
"X	c red",
"                              ",
"                              ",
"                              ",
"                              ",
"          .................   ",
"                              ",
"                              ",
"     XX                       ",
"    XXXX                      ",
"    XXXX  .................   ",
"     XX                       ",
"                              ",
"                              ",
"                              ",
"          .................   ",
"                              ",
"                              ",
"                              ",
"                              ",
"          .................   ",
"                              ",
"                              ",
"     XX                       ",
"    XXXX                      ",
"    XXXX  .................   ",
"     XX                       ",
"                              ",
"                              ",
"                              ",
"                              "};
