/* XPM */
static const char * medic_stop_program[] = {
"15 15 3 1",
" 	c None",
".	c black",
"X	c red",
"               ",
"     .....     ",
"    .XXXXX.    ",
"   .XXXXXXX.   ",
"  .XXXXXXXXX.  ",
" .XX.X.X.X.XX. ",
" .X.XX.X.X..X. ",
" .XX.X.X.X.XX. ",
" .X.XX.X.X.XX. ",
" .XXXXXXXXXXX. ",
"  .XXXXXXXXX.  ",
"   .XXXXXXX.   ",
"    .XXXXX.    ",
"     .....     ",
"               "};
