/* XPM */
static const char * medic_show_file_list[] = {
"15 15 3 1",
" 	c None",
".	c black",
"X	c white",
"               ",
"               ",
"  .....        ",
"  .XXX..       ",
"  .XXX...      ",
"  .XXXXX.      ",
"  .XXX.....    ",
"  .XXX.XXX..   ",
"  .XXX.XXX...  ",
"  .....XXXXX.  ",
"      .XXXXX.  ",
"      .XXXXX.  ",
"      .XXXXX.  ",
"      .......  ",
"               "};
