/* XPM */
static const char * medic_current_asm_window[] = {
"30 30 6 1",
" 	c grey80",
".	c gray90",
"X	c gray50",
"o	c black",
"O	c red",
"+	c magenta",
"                        ..XX  ",
"                   o    ..XX  ",
"    oo            o o   ..XX  ",
"   oOOo          o   o  ..XX  ",
"  oOOOOo         o   o  ..XX  ",
"  oOOOOo         ooooo  ..XX  ",
"   oOOo          o   o  ..XX  ",
"    oo           o   o  ..XX  ",
"                 o   o  ..XX  ",
"                        ..XX  ",
"                        ..XX  ",
"                 oooo   ..XX  ",
"                 o   o  ..XX  ",
"                 o   o  ..XX  ",
"                 oooo   ..XX  ",
"                 o   o  ..XX  ",
"                 o   o  ..XX  ",
"                 o   o  ..XX  ",
"                 oooo   ..XX  ",
"                        ..XX  ",
"          o             ..XX  ",
"          oo      ooo   ..XX  ",
"          o+o    o   o  ..XX  ",
"          o++o   o      ..XX  ",
"          o+++o  o      ..XX  ",
"          o++o   o      ..XX  ",
"          o+o    o      ..XX  ",
"          oo     o   o  ..XX  ",
"          o       ooo   ..XX  ",
"                        ..XX  "};
