/* XPM */
static const char * medic_show_memory[] = {
"11 15 2 1",
" 	c None",
".	c black",
"           ",
"  ...   .  ",
" .   . ..  ",
" .   .  .  ",
" .   .  .  ",
" .   .  .  ",
"  ...  ... ",
"           ",
"  .   ...  ",
" ..  .   . ",
"  .  .   . ",
"  .  .   . ",
"  .  .   . ",
" ...  ...  ",
"           "};
