/* XPM */
static const char * medic_kill_program[] = {
"15 15 7 1",
" 	c None",
".	c gray40",
"X	c white",
"o	c wheat",
"O	c gray50",
"-	c black",
"*	c #999900000000",
"               ",
"**X    .   **X ",
"****X .X. **X  ",
" ****XXXX**X   ",
"   ***XX*X.    ",
"   .*****XX.   ",
"  .XX***Xo.X.  ",
"   .*****Xo.   ",
"   ***XX**Xo-- ",
"  ***XXXX**X-- ",
" ***XO.X.O*X-  ",
" ***X O.O  *X  ",
"  *X   O       ",
"            *X ",
"               "};
