/* XPM */
static const char * medic_stack_trace_window[] = {
"30 30 7 1",
" 	c grey80",
".	c black",
"X	c red",
"o	c green",
"O	c magenta",
"+	c blue",
"@	c yellow",
"                              ",
"                              ",
"                              ",
"                              ",
"    ....                      ",
"    .XX.               ....   ",
"    .XX.               .oo.   ",
"    ....              ..oo.   ",
"      .              . ....   ",
"       .            .    .    ",
"        .         ..     .    ",
"        .        .      .     ",
"         . .... .       .     ",
"          ..OO..        .     ",
"           .OO.        .      ",
"           ....        .      ",
"                      .       ",
"                      .       ",
"                      .       ",
"                     .        ",
"                     .        ",
"                   ....       ",
"     ....     ......++.       ",
"     .@@......     .++.       ",
"     .@@.          ....       ",
"     ....                     ",
"                              ",
"                              ",
"                              ",
"                              "};
