/* XPM */
static const char * medic_show_breakpoints[] = {
"15 15 3 1",
" 	c None",
".	c black",
"X	c red",
"               ",
"               ",
"     ........  ",
"               ",
"  XX           ",
"  XX ........  ",
"               ",
"               ",
"     ........  ",
"               ",
"  XX           ",
"  XX ........  ",
"               ",
"               ",
"               "};
