/* XPM */
static const char * medic_local_variables_window[] = {
"30 30 2 1",
" 	c grey80",
".	c black",
"                              ",
"                              ",
"                              ",
"                              ",
"                              ",
"                              ",
"               ...            ",
"               ...            ",
"               ...            ",
"                              ",
"                              ",
"           ......             ",
"             ....             ",
"             ....             ",
"             ....             ",
"            ....              ",
"            ....              ",
"            ....              ",
"            ....              ",
"           ....               ",
"           ....  .            ",
"           .... .             ",
"            ....              ",
"                              ",
"                              ",
"                              ",
"                              ",
"                              ",
"                              ",
"                              "};
