/* XPM */
static const char * medic_reverse_step[] = {
"15 15 3 1",
" 	c None",
".	c #000000",
"+	c #0000FF",
"............   ",
".          .   ",
".       +  .   ",
".      ++  .   ",
".     + +  .   ",
".    +  +++++++",
".   +         +",
".  +          +",
".   +         +",
".    +  +++++++",
".     + +  .   ",
".      ++  .   ",
".       +  .   ",
".          .   ",
"............   "};
