/* XPM */
static char * newmail_xpm[] = {
"32 32 4 1",
" 	c None",
".	c #000000000000",
"X	c #FFFFFFFFFFFF",
"o	c gray90",
"                                ",
"                                ",
"                                ",
"                                ",
"                                ",
"            .                   ",
"           .X.                  ",
"          .XXX.                 ",
"         .XX.XX.                ",
"        .XX.X.XX.               ",
"       .XXXX.XXXX......         ",
"      .XXXXXX.XXXX.XXX.         ",
"     .XXXXXXXXXXXXX......       ",
"      .XXXXXXX.XXXXX.XXX.       ",
"     ...XXXXX.X.XXXXX......     ",
"     .XX.XXX.X.X.XXXXX.XXX.     ",
"     .X...XXX.X.X.XXXXX..X.     ",
"     .XXXX.XXX.X.XXXXXXX.X.     ",
"     .X.....XXX.X.XXXX.XX..     ",
"    ..XXXXXX.XXX.X.XX...XX..    ",
"    ..XXXXXXX.XXXXXXXX.XX...    ",
"   .o.XXXXXXXX.XXXXXXXXX.o.o.   ",
"   ........XX...XXXXX........   ",
"   .ooooooo.XXXX.XXX.ooooooo.   ",
"   .oooooooo........oooooooo.   ",
"   .oooooooooooooooooooooooo.   ",
"   .oooooooooooooooooooooooo.   ",
"    ........................    ",
"                                ",
"                                ",
"                                ",
"                                "};
