/* XPM */
static const char * editcopy[] = {
"15 14 4 1",
" 	c None",
".	c #000000000000",
"X	c #FFFFFFFFFFFF",
"o	c #C0C0C0C0C0C0",
"               ",
"......         ",
".XXXX..        ",
".XXXX.X.       ",
".X..X.......   ",
".XXXXo.XXXX..  ",
".X.....XXXX.X. ",
".XXXXo.X..X....",
".X.....XXXXXXX.",
".XXXXo.X.....X.",
".......XXXXXXX.",
"      .X.....X.",
"      .XXXXXXX.",
"      ........."};
