/* XPM */
static const char * fileopen[] = {
"17 18 6 1",
" 	c None",
".	c #000000000000",
"X	c #DCDCDCDCDCDC",
"o	c #FFFFFFFFFFFF",
"O	c #C0C0C0C0C0C0",
"+	c #808080808080",
"          ....   ",
"             .. .",
"              ...",
"              ...",
"             ....",
"  ....           ",
"  .XoX.......    ",
"  .oXoXoXoXo.    ",
"  .XX..........  ",
"  .oX.XXOOOOO+.  ",
"  .X.XXOXOOO+.   ",
"  .X.XXOOO+O+.   ",
"  ..XXOXOOO+.    ",
"  ..XXOOO+O+.    ",
"  .++++++++.     ",
"  ..........     ",
"                 ",
"                 "};
