/* XPM */
static const char * glBuiltInFit[] = {
"15 15 3 1",
" 	c None",
".	c #000000000000",
"X	c #B3B3B3B3B3B3",
"     .....     ",
"   ..     ..   ",
"  .    X    .  ",
" .     X     . ",
" .     X  .  . ",
".      X .    .",
".      X      .",
". XXXXXXXXXXX .",
".      X      .",
".    . X      .",
" .  .  X     . ",
" .     X     . ",
"  .    X    .  ",
"   ..     ..   ",
"     .....     "};
