/* XPM */
static const char * glPolyFit[] = {
"15 15 3 1",
" 	c #B3B3B3B3B3B3",
".	c None",
"X	c #000000000000",
"               ",
" ............. ",
" ............. ",
" ............. ",
" ............. ",
" ...........X. ",
" ....XX....X.. ",
" ...X..X..X... ",
" ..X....XX.... ",
" .X........... ",
" ............. ",
" ............. ",
" ............. ",
" ............. ",
"               "};
