/* XPM */
static const char * manual[] = {
"16 14 7 1",
" 	c None",
".	c #000000000000",
"X	c #9C9C9A9A9C9C",
"o	c #E7E7E7E7E7E7",
"O	c #B5B5B2B2B5B5",
"+	c #FFFFFFFFFFFF",
"@	c #7F7F7F7F7F7F",
"       ..       ",
"     ..XX.      ",
"   ..XXXXX.     ",
" ..XXXXXXXX.    ",
".ooXXXXXXXXX.   ",
"..ooXXXXXXXXX.  ",
".O.ooXXXXXXXXX. ",
".OO.ooXXXXXX..  ",
" .OO.ooXXX..+@  ",
"  .OO.oo..++@@. ",
"   .OO..++@@..  ",
"    .O.+@@..    ",
"     ..@..      ",
"      ..        "};
