/* XPM */
static const char * plotdata[] = {
"15 12 2 1",
" 	c None",
".	c #000000000000",
"       .       ",
" .     .       ",
"       .       ",
"  . .  .       ",
"       .       ",
"     . .       ",
"...............",
"       .       ",
"       . .     ",
"       .   .   ",
"       .     . ",
"       .       "};
