/* XPM */
static const char * glv_transform[] = {
"18 14 2 1",
" 	c None",
".	c #000000000000",
"                  ",
"                  ",
"     .. ..    .   ",
"    .  .       .  ",
"   ..... .  .  .  ",
"    . .   ..   .  ",
"    . .   .    .  ",
"   .  .  . .   .  ",
"   .  . .  .  .   ",
"   .  .       .   ",
"   .   .    ..    ",
"  .               ",
"                  ",
"                  "};
